<svg xmlns="http://www.w3.org/2000/svg" version="1.1" xmlns:xlink="http://www.w3.org/1999/xlink" xmlns:svgjs="http://svgjs.com/svgjs" width="1920" height="2160" preserveAspectRatio="none" viewBox="0 0 1920 2160"><g mask="url(&quot;#SvgjsMask6605&quot;)" fill="none"><rect width="1920" height="2160" x="0" y="0" fill="#0e2a47"></rect><path d="M831 1124L-401 2356" stroke-width="10" stroke="url(#SvgjsLinearGradient6606)" stroke-linecap="round" class="TopRight"></path><path d="M1773 1874L614 3033" stroke-width="6" stroke="url(#SvgjsLinearGradient6607)" stroke-linecap="round" class="BottomLeft"></path><path d="M551 1785L1602 734" stroke-width="10" stroke="url(#SvgjsLinearGradient6606)" stroke-linecap="round" class="TopRight"></path><path d="M1618 2103L2550 1171" stroke-width="10" stroke="url(#SvgjsLinearGradient6608)" stroke-linecap="round" class="TopRight"></path><path d="M316 1400L899 817" stroke-width="6" stroke="url(#SvgjsLinearGradient6609)" stroke-linecap="round" class="BottomLeft"></path><path d="M1665 762L924 1503" stroke-width="10" stroke="url(#SvgjsLinearGradient6608)" stroke-linecap="round" class="TopRight"></path><path d="M66 622L-499 1187" stroke-width="10" stroke="url(#SvgjsLinearGradient6607)" stroke-linecap="round" class="BottomLeft"></path><path d="M747 1707L1421 1033" stroke-width="6" stroke="url(#SvgjsLinearGradient6608)" stroke-linecap="round" class="TopRight"></path><path d="M317 1112L1296 133" stroke-width="6" stroke="url(#SvgjsLinearGradient6607)" stroke-linecap="round" class="BottomLeft"></path><path d="M869 622L2053 -562" stroke-width="8" stroke="url(#SvgjsLinearGradient6609)" stroke-linecap="round" class="BottomLeft"></path><path d="M684 1618L1312 990" stroke-width="10" stroke="url(#SvgjsLinearGradient6607)" stroke-linecap="round" class="BottomLeft"></path><path d="M43 1972L1227 788" stroke-width="10" stroke="url(#SvgjsLinearGradient6607)" stroke-linecap="round" class="BottomLeft"></path><path d="M1570 1047L2962 -345" stroke-width="10" stroke="url(#SvgjsLinearGradient6609)" stroke-linecap="round" class="BottomLeft"></path><path d="M1443 409L2612 -760" stroke-width="10" stroke="url(#SvgjsLinearGradient6609)" stroke-linecap="round" class="BottomLeft"></path><path d="M1175 651L2097 -271" stroke-width="6" stroke="url(#SvgjsLinearGradient6608)" stroke-linecap="round" class="TopRight"></path><path d="M1393 1811L2087 1117" stroke-width="6" stroke="url(#SvgjsLinearGradient6609)" stroke-linecap="round" class="BottomLeft"></path><path d="M1389 101L1933 -443" stroke-width="8" stroke="url(#SvgjsLinearGradient6606)" stroke-linecap="round" class="TopRight"></path><path d="M149 648L-646 1443" stroke-width="8" stroke="url(#SvgjsLinearGradient6609)" stroke-linecap="round" class="BottomLeft"></path><path d="M114 525L1367 -728" stroke-width="10" stroke="url(#SvgjsLinearGradient6607)" stroke-linecap="round" class="BottomLeft"></path><path d="M1878 1883L1265 2496" stroke-width="8" stroke="url(#SvgjsLinearGradient6608)" stroke-linecap="round" class="TopRight"></path><path d="M714 1957L1203 1468" stroke-width="8" stroke="url(#SvgjsLinearGradient6609)" stroke-linecap="round" class="BottomLeft"></path><path d="M1863 1928L811 2980" stroke-width="10" stroke="url(#SvgjsLinearGradient6606)" stroke-linecap="round" class="TopRight"></path><path d="M1542 1389L2099 832" stroke-width="10" stroke="url(#SvgjsLinearGradient6609)" stroke-linecap="round" class="BottomLeft"></path><path d="M1564 1506L1053 2017" stroke-width="10" stroke="url(#SvgjsLinearGradient6607)" stroke-linecap="round" class="BottomLeft"></path><path d="M1193 154L1849 -502" stroke-width="6" stroke="url(#SvgjsLinearGradient6607)" stroke-linecap="round" class="BottomLeft"></path><path d="M819 1080L1766 133" stroke-width="8" stroke="url(#SvgjsLinearGradient6606)" stroke-linecap="round" class="TopRight"></path><path d="M763 1060L-173 1996" stroke-width="6" stroke="url(#SvgjsLinearGradient6608)" stroke-linecap="round" class="TopRight"></path><path d="M645 1295L1239 701" stroke-width="8" stroke="url(#SvgjsLinearGradient6607)" stroke-linecap="round" class="BottomLeft"></path><path d="M341 1798L1232 907" stroke-width="10" stroke="url(#SvgjsLinearGradient6607)" stroke-linecap="round" class="BottomLeft"></path><path d="M880 165L2055 -1010" stroke-width="8" stroke="url(#SvgjsLinearGradient6609)" stroke-linecap="round" class="BottomLeft"></path><path d="M872 1866L1448 1290" stroke-width="10" stroke="url(#SvgjsLinearGradient6607)" stroke-linecap="round" class="BottomLeft"></path><path d="M1506 419L2809 -884" stroke-width="8" stroke="url(#SvgjsLinearGradient6608)" stroke-linecap="round" class="TopRight"></path><path d="M398 949L927 420" stroke-width="10" stroke="url(#SvgjsLinearGradient6608)" stroke-linecap="round" class="TopRight"></path><path d="M1006 565L2170 -599" stroke-width="10" stroke="url(#SvgjsLinearGradient6606)" stroke-linecap="round" class="TopRight"></path><path d="M1782 895L2833 -156" stroke-width="10" stroke="url(#SvgjsLinearGradient6609)" stroke-linecap="round" class="BottomLeft"></path><path d="M1021 130L1767 -616" stroke-width="8" stroke="url(#SvgjsLinearGradient6607)" stroke-linecap="round" class="BottomLeft"></path><path d="M635 1541L-778 2954" stroke-width="6" stroke="url(#SvgjsLinearGradient6606)" stroke-linecap="round" class="TopRight"></path><path d="M1011 210L2145 -924" stroke-width="6" stroke="url(#SvgjsLinearGradient6607)" stroke-linecap="round" class="BottomLeft"></path><path d="M1751 333L2887 -803" stroke-width="6" stroke="url(#SvgjsLinearGradient6606)" stroke-linecap="round" class="TopRight"></path><path d="M1553 1182L2186 549" stroke-width="10" stroke="url(#SvgjsLinearGradient6606)" stroke-linecap="round" class="TopRight"></path><path d="M639 673L1568 -256" stroke-width="6" stroke="url(#SvgjsLinearGradient6609)" stroke-linecap="round" class="BottomLeft"></path><path d="M906 1864L1808 962" stroke-width="10" stroke="url(#SvgjsLinearGradient6609)" stroke-linecap="round" class="BottomLeft"></path><path d="M348 1059L-928 2335" stroke-width="6" stroke="url(#SvgjsLinearGradient6608)" stroke-linecap="round" class="TopRight"></path><path d="M1855 1115L3128 -158" stroke-width="10" stroke="url(#SvgjsLinearGradient6608)" stroke-linecap="round" class="TopRight"></path><path d="M894 1342L-134 2370" stroke-width="6" stroke="url(#SvgjsLinearGradient6608)" stroke-linecap="round" class="TopRight"></path><path d="M81 609L-730 1420" stroke-width="6" stroke="url(#SvgjsLinearGradient6606)" stroke-linecap="round" class="TopRight"></path><path d="M795 651L-288 1734" stroke-width="6" stroke="url(#SvgjsLinearGradient6608)" stroke-linecap="round" class="TopRight"></path><path d="M49 694L1188 -445" stroke-width="8" stroke="url(#SvgjsLinearGradient6609)" stroke-linecap="round" class="BottomLeft"></path><path d="M428 99L-869 1396" stroke-width="10" stroke="url(#SvgjsLinearGradient6606)" stroke-linecap="round" class="TopRight"></path><path d="M1254 1747L91 2910" stroke-width="10" stroke="url(#SvgjsLinearGradient6609)" stroke-linecap="round" class="BottomLeft"></path><path d="M1805 280L2316 -231" stroke-width="6" stroke="url(#SvgjsLinearGradient6607)" stroke-linecap="round" class="BottomLeft"></path><path d="M508 2149L-102 2759" stroke-width="8" stroke="url(#SvgjsLinearGradient6607)" stroke-linecap="round" class="BottomLeft"></path><path d="M1009 1695L1733 971" stroke-width="10" stroke="url(#SvgjsLinearGradient6608)" stroke-linecap="round" class="TopRight"></path><path d="M448 842L1086 204" stroke-width="8" stroke="url(#SvgjsLinearGradient6609)" stroke-linecap="round" class="BottomLeft"></path><path d="M178 227L755 -350" stroke-width="8" stroke="url(#SvgjsLinearGradient6607)" stroke-linecap="round" class="BottomLeft"></path><path d="M662 430L-597 1689" stroke-width="6" stroke="url(#SvgjsLinearGradient6606)" stroke-linecap="round" class="TopRight"></path><path d="M528 1111L-796 2435" stroke-width="10" stroke="url(#SvgjsLinearGradient6609)" stroke-linecap="round" class="BottomLeft"></path><path d="M308 156L-245 709" stroke-width="8" stroke="url(#SvgjsLinearGradient6608)" stroke-linecap="round" class="TopRight"></path><path d="M1422 1642L2144 920" stroke-width="6" stroke="url(#SvgjsLinearGradient6607)" stroke-linecap="round" class="BottomLeft"></path><path d="M921 1932L139 2714" stroke-width="10" stroke="url(#SvgjsLinearGradient6609)" stroke-linecap="round" class="BottomLeft"></path><path d="M293 1862L-1043 3198" stroke-width="10" stroke="url(#SvgjsLinearGradient6609)" stroke-linecap="round" class="BottomLeft"></path><path d="M1366 656L1894 128" stroke-width="10" stroke="url(#SvgjsLinearGradient6606)" stroke-linecap="round" class="TopRight"></path><path d="M833 1562L-321 2716" stroke-width="8" stroke="url(#SvgjsLinearGradient6609)" stroke-linecap="round" class="BottomLeft"></path><path d="M957 1065L2097 -75" stroke-width="8" stroke="url(#SvgjsLinearGradient6606)" stroke-linecap="round" class="TopRight"></path><path d="M829 2156L-251 3236" stroke-width="10" stroke="url(#SvgjsLinearGradient6606)" stroke-linecap="round" class="TopRight"></path><path d="M29 520L-826 1375" stroke-width="10" stroke="url(#SvgjsLinearGradient6608)" stroke-linecap="round" class="TopRight"></path><path d="M1154 868L2577 -555" stroke-width="10" stroke="url(#SvgjsLinearGradient6609)" stroke-linecap="round" class="BottomLeft"></path><path d="M1373 442L690 1125" stroke-width="10" stroke="url(#SvgjsLinearGradient6607)" stroke-linecap="round" class="BottomLeft"></path><path d="M126 1940L-958 3024" stroke-width="6" stroke="url(#SvgjsLinearGradient6607)" stroke-linecap="round" class="BottomLeft"></path><path d="M758 964L1335 387" stroke-width="10" stroke="url(#SvgjsLinearGradient6609)" stroke-linecap="round" class="BottomLeft"></path><path d="M1831 1103L2845 89" stroke-width="10" stroke="url(#SvgjsLinearGradient6606)" stroke-linecap="round" class="TopRight"></path><path d="M1712 1364L395 2681" stroke-width="8" stroke="url(#SvgjsLinearGradient6607)" stroke-linecap="round" class="BottomLeft"></path><path d="M1543 523L2333 -267" stroke-width="6" stroke="url(#SvgjsLinearGradient6606)" stroke-linecap="round" class="TopRight"></path></g><defs><mask id="SvgjsMask6605"><rect width="1920" height="2160" fill="#ffffff"></rect></mask><linearGradient x1="0%" y1="100%" x2="100%" y2="0%" id="SvgjsLinearGradient6606"><stop stop-color="rgba(255, 142, 0, 0)" offset="0"></stop><stop stop-color="rgba(255, 142, 0, 1)" offset="1"></stop></linearGradient><linearGradient x1="100%" y1="0%" x2="0%" y2="100%" id="SvgjsLinearGradient6607"><stop stop-color="rgba(28, 83, 142, 0)" offset="0"></stop><stop stop-color="#1c538e" offset="1"></stop></linearGradient><linearGradient x1="0%" y1="100%" x2="100%" y2="0%" id="SvgjsLinearGradient6608"><stop stop-color="rgba(28, 83, 142, 0)" offset="0"></stop><stop stop-color="#1c538e" offset="1"></stop></linearGradient><linearGradient x1="100%" y1="0%" x2="0%" y2="100%" id="SvgjsLinearGradient6609"><stop stop-color="rgba(255, 142, 0, 0)" offset="0"></stop><stop stop-color="rgba(255, 142, 0, 1)" offset="1"></stop></linearGradient></defs></svg>