<svg xmlns="http://www.w3.org/2000/svg" version="1.1" xmlns:xlink="http://www.w3.org/1999/xlink" xmlns:svgjs="http://svgjs.com/svgjs" width="1448" height="348" preserveAspectRatio="none" viewBox="0 0 1448 348"><g mask="url(&quot;#SvgjsMask1146&quot;)" fill="none"><path d="M -264.4745816293015,310 C -167.87,266.2 25.33,108 218.5254183706985,91 C 411.73,74 508.33,233.8 701.5254183706985,225 C 894.73,216.2 991.33,53.8 1184.5254183706984,47 C 1377.73,40.2 1614.83,195.6 1667.5254183706984,191 C 1720.22,186.4 1491.91,57.4 1448,24" stroke="rgba(28, 86, 147, 1)" stroke-width="2"></path><path d="M -92.56698500799439,90 C 4.03,111.2 197.23,189.2 390.4330149920056,196 C 583.63,202.8 680.23,118.6 873.4330149920056,124 C 1066.63,129.4 1163.23,236.2 1356.4330149920056,223 C 1549.63,209.8 1821.12,56.8 1839.4330149920056,58 C 1857.75,59.2 1526.29,194.8 1448,229" stroke="rgba(28, 86, 147, 1)" stroke-width="2"></path><path d="M -834.7792535307632,284 C -738.18,229.4 -544.98,13.6 -351.7792535307632,11 C -158.58,8.4 -61.98,265.6 131.22074646923681,271 C 324.42,276.4 421.02,42.8 614.2207464692368,38 C 807.42,33.2 930.46,222 1097.220746469237,247 C 1263.98,272 1377.84,179.8 1448,163" stroke="rgba(28, 86, 147, 1)" stroke-width="2"></path></g><defs><mask id="SvgjsMask1146"><rect width="1448" height="348" fill="#ffffff"></rect></mask></defs></svg>