<svg id="Capa_1" data-name="Capa 1" xmlns="http://www.w3.org/2000/svg" viewBox="0 0 1965.3 3941"><defs><style>.cls-1{fill:#0e2a47;}.cls-2{opacity:0.66;}.cls-3{fill:#ff8e00;}</style></defs><rect class="cls-1" width="1920" height="3941"/><g class="cls-2"><path class="cls-3" d="M211.57,273c-.23,4.47,1.92,8.33,4.81,8.64s5.41-3.07,5.64-7.53-1.92-8.33-4.8-8.63S211.81,268.5,211.57,273Z" transform="translate(0 4)"/><path class="cls-3" d="M284.11,183.76c-2.71,7.16-1.45,14.8,2.8,17.06s9.9-1.72,12.62-8.89,1.46-14.8-2.81-17.06S286.82,176.59,284.11,183.76Z" transform="translate(0 4)"/><path class="cls-3" d="M223,119.12c-.46,9,3.65,16.74,9.18,17.33s10.41-6.21,10.88-15.2-3.64-16.73-9.18-17.32S223.48,110.14,223,119.12Z" transform="translate(0 4)"/><path class="cls-3" d="M116.11,89.75c-.47,9,3.64,16.74,9.18,17.33s10.4-6.22,10.87-15.2S132.52,75.15,127,74.56,116.58,80.77,116.11,89.75Z" transform="translate(0 4)"/><path class="cls-3" d="M64.06,137.46c-.62,11.91,6.59,22.4,16.1,23.41S97.89,153,98.51,141.12s-6.58-22.4-16.1-23.41S64.7,125.54,64.06,137.46Z" transform="translate(0 4)"/><path class="cls-3" d="M388,157.1c-.36,6.82,3.34,12.78,8.27,13.3s9.2-4.58,9.55-11.41-3.33-12.78-8.27-13.31S388.37,150.27,388,157.1Z" transform="translate(0 4)"/><path class="cls-3" d="M328.22,182c-.31,6,2.86,11.15,7.1,11.61s7.92-4,8.23-10-2.86-11.16-7.11-11.61S328.53,176.05,328.22,182Z" transform="translate(0 4)"/><path class="cls-3" d="M443,230.55c-.24,4.47,1.91,8.32,4.8,8.64s5.41-3.06,5.63-7.53-1.9-8.33-4.8-8.63S443.25,226.09,443,230.55Z" transform="translate(0 4)"/><path class="cls-3" d="M175.67,162.67c-.24,4.46,1.91,8.33,4.8,8.64s5.41-3.06,5.64-7.52-1.91-8.34-4.8-8.64S175.89,158.21,175.67,162.67Z" transform="translate(0 4)"/><path class="cls-3" d="M265.85,102.33c-.24,4.46,1.91,8.32,4.8,8.63s5.41-3.06,5.65-7.52-1.92-8.33-4.81-8.64S266.08,97.87,265.85,102.33Z" transform="translate(0 4)"/><path class="cls-3" d="M172.35,144.62c-.24,4.47,1.92,8.33,4.8,8.64s5.41-3.06,5.65-7.53-1.92-8.33-4.79-8.64S172.59,140.16,172.35,144.62Z" transform="translate(0 4)"/><path class="cls-3" d="M170.75,136.63c-.22,4.47,1.93,8.33,4.81,8.64s5.42-3.07,5.65-7.52-1.91-8.34-4.81-8.65S171,132.17,170.75,136.63Z" transform="translate(0 4)"/><path class="cls-3" d="M162.21,223.45a9.05,9.05,0,0,0,7.71,9.54,7.93,7.93,0,0,0,8.62-7.81,9,9,0,0,0-7.71-9.54C166.33,215.16,162.47,218.66,162.21,223.45Z" transform="translate(0 4)"/><path class="cls-3" d="M145,85.8c-.33,6.26,2.29,11.64,5.85,12s6.71-4.39,7-10.65-2.29-11.64-5.86-12S145.3,79.54,145,85.8Z" transform="translate(0 4)"/><path class="cls-3" d="M257.4,206.94c-.32,6.1,2.48,11.38,6.24,11.78s7.07-4.23,7.39-10.33-2.47-11.39-6.24-11.78S257.71,200.83,257.4,206.94Z" transform="translate(0 4)"/><path class="cls-3" d="M45.84,21.11c-.32,6.1,2.47,11.38,6.24,11.78s7.07-4.23,7.39-10.33S57,11.18,53.23,10.78,46.16,15,45.84,21.11Z" transform="translate(0 4)"/><path class="cls-3" d="M373.9,225.35c-.32,6.1,2.47,11.37,6.23,11.77s7.08-4.22,7.39-10.33-2.47-11.37-6.23-11.77S374.21,219.24,373.9,225.35Z" transform="translate(0 4)"/><path class="cls-3" d="M314.26,164.85c-.31,6.11,2.48,11.38,6.24,11.78s7.07-4.22,7.39-10.33-2.47-11.37-6.24-11.77S314.58,158.75,314.26,164.85Z" transform="translate(0 4)"/><path class="cls-3" d="M88.61,173.74c-.32,6.11,2.47,11.38,6.23,11.78s7.08-4.22,7.39-10.33S99.77,163.81,96,163.41,88.93,167.64,88.61,173.74Z" transform="translate(0 4)"/><path class="cls-3" d="M39.08,118.66c-.32,6.1,2.46,11.38,6.22,11.78s7.09-4.23,7.41-10.33-2.48-11.38-6.24-11.78S39.4,112.55,39.08,118.66Z" transform="translate(0 4)"/></g><g class="cls-2"><path class="cls-3" d="M472.83,514.71c-.23-4.47,1.92-8.33,4.81-8.64s5.41,3.07,5.64,7.52-1.92,8.34-4.8,8.64S473.07,519.17,472.83,514.71Z" transform="translate(0 4)"/><path class="cls-3" d="M545.37,603.91c-2.71-7.16-1.45-14.81,2.8-17.06s9.9,1.72,12.62,8.88,1.46,14.81-2.81,17.07S548.08,611.08,545.37,603.91Z" transform="translate(0 4)"/><path class="cls-3" d="M484.26,668.55c-.46-9,3.65-16.75,9.18-17.33s10.41,6.21,10.88,15.19-3.64,16.74-9.18,17.33S484.74,677.53,484.26,668.55Z" transform="translate(0 4)"/><path class="cls-3" d="M377.37,697.91c-.47-9,3.64-16.73,9.18-17.32s10.4,6.21,10.87,15.2-3.64,16.73-9.18,17.32S377.84,706.89,377.37,697.91Z" transform="translate(0 4)"/><path class="cls-3" d="M325.32,650.21c-.62-11.91,6.58-22.41,16.1-23.41s17.73,7.83,18.35,19.75S353.19,669,343.66,670,326,662.13,325.32,650.21Z" transform="translate(0 4)"/><path class="cls-3" d="M649.27,630.57c-.36-6.82,3.34-12.78,8.27-13.31s9.2,4.59,9.55,11.42-3.34,12.78-8.27,13.3S649.63,637.4,649.27,630.57Z" transform="translate(0 4)"/><path class="cls-3" d="M589.48,605.66c-.31-6,2.86-11.16,7.1-11.61s7.91,4,8.23,10-2.86,11.16-7.11,11.61S589.79,611.61,589.48,605.66Z" transform="translate(0 4)"/><path class="cls-3" d="M704.29,557.12c-.24-4.47,1.91-8.33,4.8-8.64s5.41,3.06,5.63,7.52-1.9,8.34-4.8,8.64S704.51,561.58,704.29,557.12Z" transform="translate(0 4)"/><path class="cls-3" d="M436.92,625c-.23-4.47,1.92-8.34,4.81-8.64s5.41,3.06,5.64,7.52-1.92,8.33-4.81,8.64S437.15,629.45,436.92,625Z" transform="translate(0 4)"/><path class="cls-3" d="M527.1,685.34c-.23-4.46,1.92-8.33,4.81-8.64s5.41,3.07,5.65,7.53-1.92,8.33-4.81,8.64S527.34,689.8,527.1,685.34Z" transform="translate(0 4)"/><path class="cls-3" d="M433.61,643c-.24-4.46,1.92-8.33,4.8-8.63s5.41,3.06,5.65,7.52-1.92,8.34-4.79,8.64S433.85,647.51,433.61,643Z" transform="translate(0 4)"/><path class="cls-3" d="M432,651c-.22-4.47,1.92-8.33,4.81-8.64s5.42,3.06,5.65,7.52-1.91,8.33-4.81,8.64S432.26,655.5,432,651Z" transform="translate(0 4)"/><path class="cls-3" d="M423.47,564.22a9,9,0,0,1,7.71-9.54,7.93,7.93,0,0,1,8.62,7.81,9,9,0,0,1-7.71,9.54C427.59,572.51,423.73,569,423.47,564.22Z" transform="translate(0 4)"/><path class="cls-3" d="M406.23,701.87c-.33-6.26,2.29-11.64,5.85-12s6.71,4.39,7,10.65-2.29,11.64-5.86,12S406.55,708.13,406.23,701.87Z" transform="translate(0 4)"/><path class="cls-3" d="M518.66,580.73c-.32-6.1,2.48-11.38,6.24-11.78s7.07,4.23,7.39,10.33-2.47,11.39-6.24,11.77S519,586.84,518.66,580.73Z" transform="translate(0 4)"/><path class="cls-3" d="M307.1,766.56c-.32-6.1,2.47-11.38,6.24-11.78s7.07,4.23,7.39,10.33-2.47,11.38-6.24,11.78S307.42,772.66,307.1,766.56Z" transform="translate(0 4)"/><path class="cls-3" d="M635.15,562.32c-.31-6.1,2.48-11.37,6.24-11.78s7.08,4.22,7.39,10.33-2.47,11.38-6.23,11.78S635.47,568.43,635.15,562.32Z" transform="translate(0 4)"/><path class="cls-3" d="M575.52,622.81c-.31-6.1,2.48-11.38,6.24-11.78s7.07,4.23,7.39,10.33-2.47,11.38-6.24,11.78S575.84,628.92,575.52,622.81Z" transform="translate(0 4)"/><path class="cls-3" d="M349.87,613.93c-.33-6.11,2.47-11.38,6.23-11.78s7.08,4.22,7.39,10.32-2.46,11.38-6.23,11.79S350.18,620,349.87,613.93Z" transform="translate(0 4)"/><path class="cls-3" d="M300.33,669c-.31-6.11,2.47-11.38,6.23-11.78s7.09,4.22,7.41,10.33-2.48,11.38-6.24,11.77S300.66,675.11,300.33,669Z" transform="translate(0 4)"/></g><g class="cls-2"><path class="cls-3" d="M278.68,462.11c-3.66-2.57-5.39-6.64-3.85-9.11s5.75-2.37,9.4.2,5.39,6.64,3.85,9.1S282.33,464.68,278.68,462.11Z" transform="translate(0 4)"/><path class="cls-3" d="M393.63,459.91c-7.31-2.28-12.56-8-11.72-12.72s7.46-6.74,14.77-4.46,12.56,8,11.72,12.71S401,462.19,393.63,459.91Z" transform="translate(0 4)"/><path class="cls-3" d="M406.91,547.86c-7.36-5.17-11-13.18-8-17.91s11.31-4.37,18.67.8,10.94,13.17,8,17.9S414.28,553,406.91,547.86Z" transform="translate(0 4)"/><path class="cls-3" d="M364.21,650.16c-7.37-5.16-10.95-13.17-8-17.9s11.3-4.37,18.67.8,10.94,13.17,8,17.9S371.57,655.32,364.21,650.16Z" transform="translate(0 4)"/><path class="cls-3" d="M294.57,661.78c-9.77-6.85-13.6-19-8.53-27.1s17.1-9.14,26.86-2.3,13.59,19,8.53,27.12S304.35,668.62,294.57,661.78Z" transform="translate(0 4)"/><path class="cls-3" d="M478.63,394.47c-5.6-3.91-8-10.5-5.4-14.7s9.28-4.43,14.88-.5,8,10.5,5.39,14.71S484.23,398.4,478.63,394.47Z" transform="translate(0 4)"/><path class="cls-3" d="M422.18,426.23c-4.89-3.42-7-9.12-4.78-12.73s8-3.77,12.93-.34,7,9.12,4.76,12.75S427.05,429.66,422.18,426.23Z" transform="translate(0 4)"/><path class="cls-3" d="M454.64,305.89c-3.66-2.56-5.38-6.63-3.84-9.1s5.74-2.38,9.39.2,5.4,6.63,3.85,9.09S458.3,308.46,454.64,305.89Z" transform="translate(0 4)"/><path class="cls-3" d="M343.44,558.33c-3.66-2.56-5.38-6.64-3.84-9.1s5.74-2.38,9.4.18,5.38,6.65,3.85,9.11S347.1,560.9,343.44,558.33Z" transform="translate(0 4)"/><path class="cls-3" d="M446.53,524.45c-3.66-2.56-5.38-6.63-3.85-9.1s5.75-2.38,9.41.18,5.38,6.65,3.84,9.11S450.18,527,446.53,524.45Z" transform="translate(0 4)"/><path class="cls-3" d="M355.62,572.06c-3.66-2.56-5.38-6.65-3.84-9.1s5.74-2.38,9.4.18,5.39,6.64,3.86,9.1S359.28,574.62,355.62,572.06Z" transform="translate(0 4)"/><path class="cls-3" d="M360.93,578.24c-3.65-2.57-5.37-6.65-3.84-9.11s5.75-2.38,9.41.18,5.38,6.64,3.84,9.11S364.6,580.79,360.93,578.24Z" transform="translate(0 4)"/><path class="cls-3" d="M287.28,531.5a9,9,0,0,1-2.77-12,7.93,7.93,0,0,1,11.46-2,9,9,0,0,1,2.77,12C296.35,533.35,291.21,534.24,287.28,531.5Z" transform="translate(0 4)"/><path class="cls-3" d="M385.1,629.86c-5.13-3.6-7.76-9-5.87-12s7.59-2.58,12.73,1,7.76,9,5.86,12S390.23,633.46,385.1,629.86Z" transform="translate(0 4)"/><path class="cls-3" d="M358.91,466.67c-5-3.5-7.44-9-5.43-12.17s7.68-3,12.69.54,7.44,9,5.43,12.17S363.92,470.19,358.91,466.67Z" transform="translate(0 4)"/><path class="cls-3" d="M375,747.8c-5-3.51-7.45-9-5.44-12.17s7.69-3,12.69.54,7.44,9,5.43,12.17S380,751.31,375,747.8Z" transform="translate(0 4)"/><path class="cls-3" d="M416.16,363.56c-5-3.51-7.43-9-5.43-12.16s7.68-3,12.69.53,7.43,8.95,5.43,12.16S421.17,367.07,416.16,363.56Z" transform="translate(0 4)"/><path class="cls-3" d="M427.09,447.8c-5-3.51-7.44-9-5.44-12.17s7.69-3,12.69.54,7.44,8.95,5.44,12.17S432.1,451.31,427.09,447.8Z" transform="translate(0 4)"/><path class="cls-3" d="M281.1,620.1c-5-3.51-7.44-9-5.44-12.17s7.69-3,12.69.54,7.45,8.95,5.44,12.16S286.11,623.61,281.1,620.1Z" transform="translate(0 4)"/><path class="cls-3" d="M294,693c-5-3.5-7.45-8.95-5.45-12.16s7.7-3,12.7.53,7.44,9,5.44,12.17S299,696.55,294,693Z" transform="translate(0 4)"/></g><g class="cls-2"><path class="cls-3" d="M804.83,459.17c-1.68-4.14-.92-8.5,1.71-9.74s6.11,1.12,7.79,5.26.93,8.5-1.7,9.73S806.52,463.3,804.83,459.17Z" transform="translate(0 4)"/><path class="cls-3" d="M902.63,519.61c-4.9-5.87-6.22-13.51-3-17s9.92-1.62,14.84,4.26,6.23,13.5,3,17S907.55,525.49,902.63,519.61Z" transform="translate(0 4)"/><path class="cls-3" d="M866.14,600.73c-3.39-8.33-2.06-17,3-19.39s11.87,2.46,15.26,10.79,2.06,17-3,19.37S869.54,609.05,866.14,600.73Z" transform="translate(0 4)"/><path class="cls-3" d="M774.81,663.56c-3.39-8.33-2.06-17,3-19.38s11.87,2.46,15.26,10.79,2.06,17-3,19.38S778.2,671.89,774.81,663.56Z" transform="translate(0 4)"/><path class="cls-3" d="M710,635.59c-4.5-11.05-1.14-23.32,7.52-27.4s19.32,1.58,23.82,12.63,1.13,23.32-7.53,27.4S714.5,646.64,710,635.59Z" transform="translate(0 4)"/><path class="cls-3" d="M1009.53,510.68c-2.58-6.33-1-13.17,3.44-15.28s10.2,1.31,12.77,7.64,1,13.17-3.44,15.29S1012.11,517,1009.53,510.68Z" transform="translate(0 4)"/><path class="cls-3" d="M944.88,506.78c-2.25-5.53-1-11.48,2.89-13.29s8.8,1.19,11.05,6.72,1,11.48-2.91,13.3S947.12,512.3,944.88,506.78Z" transform="translate(0 4)"/><path class="cls-3" d="M1037.38,423.23c-1.69-4.13-.93-8.49,1.7-9.73s6.12,1.12,7.79,5.26.94,8.49-1.7,9.73S1039.06,427.38,1037.38,423.23Z" transform="translate(0 4)"/><path class="cls-3" d="M807.13,575.13c-1.69-4.14-.93-8.5,1.7-9.73s6.11,1.11,7.8,5.25.92,8.5-1.71,9.74S808.8,579.27,807.13,575.13Z" transform="translate(0 4)"/><path class="cls-3" d="M912.12,602.52c-1.68-4.13-.93-8.49,1.7-9.73s6.12,1.11,7.81,5.25.92,8.5-1.71,9.74S913.8,606.66,912.12,602.52Z" transform="translate(0 4)"/><path class="cls-3" d="M809.92,593.27c-1.69-4.14-.92-8.5,1.7-9.73s6.12,1.11,7.81,5.25.92,8.5-1.7,9.73S811.61,597.4,809.92,593.27Z" transform="translate(0 4)"/><path class="cls-3" d="M811,601.34c-1.68-4.14-.92-8.5,1.7-9.74s6.12,1.12,7.81,5.26.93,8.49-1.71,9.74S812.73,605.47,811,601.34Z" transform="translate(0 4)"/><path class="cls-3" d="M774.46,522.15a9.06,9.06,0,0,1,4.15-11.55,7.94,7.94,0,0,1,10.71,4.54,9,9,0,0,1-4.15,11.55C781.08,528.62,776.28,526.58,774.46,522.15Z" transform="translate(0 4)"/><path class="cls-3" d="M803.37,657.82c-2.36-5.8-1.66-11.74,1.58-13.27s7.78,2,10.15,7.74,1.65,11.76-1.59,13.28S805.73,663.62,803.37,657.82Z" transform="translate(0 4)"/><path class="cls-3" d="M869.8,506.49c-2.31-5.66-1.4-11.57,2-13.18s8.07,1.67,10.38,7.33,1.4,11.57-2,13.17S872.1,512.15,869.8,506.49Z" transform="translate(0 4)"/><path class="cls-3" d="M731,751.48c-2.3-5.67-1.4-11.57,2-13.18s8.07,1.67,10.37,7.33,1.41,11.56-2,13.17S733.28,757.13,731,751.48Z" transform="translate(0 4)"/><path class="cls-3" d="M973.79,450.84c-2.31-5.65-1.4-11.55,2-13.16s8.07,1.66,10.38,7.33,1.4,11.55-2,13.16S976.09,456.51,973.79,450.84Z" transform="translate(0 4)"/><path class="cls-3" d="M937.32,527.57c-2.3-5.67-1.39-11.57,2-13.18s8.07,1.67,10.37,7.33,1.4,11.55-2,13.18S939.63,533.23,937.32,527.57Z" transform="translate(0 4)"/><path class="cls-3" d="M721.26,593.26c-2.31-5.66-1.4-11.56,2-13.17s8.07,1.66,10.37,7.32,1.41,11.56-2,13.18S723.57,598.92,721.26,593.26Z" transform="translate(0 4)"/><path class="cls-3" d="M692.56,661.55c-2.31-5.66-1.41-11.56,2-13.17S702.65,650,705,655.7s1.4,11.57-2,13.18S694.87,667.21,692.56,661.55Z" transform="translate(0 4)"/></g><g class="cls-2"><path class="cls-3" d="M998.51,311.2c-.23,4.47,1.92,8.33,4.81,8.64s5.4-3.07,5.64-7.53-1.92-8.33-4.8-8.63S998.74,306.74,998.51,311.2Z" transform="translate(0 4)"/><path class="cls-3" d="M1071.05,222c-2.71,7.16-1.45,14.8,2.8,17.06s9.9-1.72,12.62-8.89,1.45-14.8-2.81-17.06S1073.76,214.83,1071.05,222Z" transform="translate(0 4)"/><path class="cls-3" d="M1009.94,157.36c-.46,9,3.65,16.74,9.18,17.33s10.41-6.21,10.87-15.2-3.63-16.73-9.17-17.32S1010.42,148.38,1009.94,157.36Z" transform="translate(0 4)"/><path class="cls-3" d="M903.05,128c-.47,9,3.63,16.74,9.17,17.33s10.41-6.22,10.87-15.2-3.63-16.73-9.17-17.32S903.51,119,903.05,128Z" transform="translate(0 4)"/><path class="cls-3" d="M851,175.69c-.62,11.92,6.58,22.41,16.1,23.42s17.73-7.84,18.35-19.75S878.87,157,869.34,156,851.63,163.78,851,175.69Z" transform="translate(0 4)"/><path class="cls-3" d="M1175,195.34c-.36,6.82,3.34,12.78,8.26,13.3s9.21-4.58,9.56-11.41-3.34-12.78-8.27-13.31S1175.31,188.51,1175,195.34Z" transform="translate(0 4)"/><path class="cls-3" d="M1115.16,220.25c-.31,6,2.86,11.15,7.1,11.61s7.91-4,8.22-10-2.86-11.16-7.1-11.61S1115.47,214.29,1115.16,220.25Z" transform="translate(0 4)"/><path class="cls-3" d="M1230,268.79c-.23,4.47,1.92,8.32,4.81,8.63s5.41-3.06,5.63-7.52-1.9-8.33-4.8-8.63S1230.19,264.33,1230,268.79Z" transform="translate(0 4)"/><path class="cls-3" d="M962.6,200.91c-.23,4.46,1.92,8.33,4.8,8.64s5.41-3.06,5.65-7.52-1.92-8.34-4.81-8.64S962.83,196.45,962.6,200.91Z" transform="translate(0 4)"/><path class="cls-3" d="M1052.78,140.57c-.23,4.46,1.92,8.32,4.8,8.63s5.42-3.06,5.65-7.52-1.91-8.33-4.8-8.64S1053,136.11,1052.78,140.57Z" transform="translate(0 4)"/><path class="cls-3" d="M959.29,182.86c-.24,4.47,1.92,8.33,4.8,8.64s5.41-3.06,5.65-7.53-1.92-8.33-4.8-8.64S959.53,178.4,959.29,182.86Z" transform="translate(0 4)"/><path class="cls-3" d="M957.69,174.87c-.22,4.47,1.92,8.33,4.81,8.64s5.42-3.07,5.65-7.52-1.92-8.34-4.81-8.65S957.94,170.41,957.69,174.87Z" transform="translate(0 4)"/><path class="cls-3" d="M949.15,261.68a9.05,9.05,0,0,0,7.71,9.55,7.93,7.93,0,0,0,8.62-7.81,9,9,0,0,0-7.71-9.54C953.27,253.4,949.41,256.9,949.15,261.68Z" transform="translate(0 4)"/><path class="cls-3" d="M931.9,124c-.32,6.26,2.29,11.64,5.86,12s6.7-4.4,7-10.65-2.29-11.64-5.86-12S932.23,117.78,931.9,124Z" transform="translate(0 4)"/><path class="cls-3" d="M1044.34,245.18c-.33,6.1,2.48,11.38,6.24,11.78s7.07-4.23,7.39-10.33-2.47-11.39-6.24-11.78S1044.65,239.07,1044.34,245.18Z" transform="translate(0 4)"/><path class="cls-3" d="M832.78,59.35c-.32,6.1,2.47,11.38,6.24,11.78s7.07-4.23,7.38-10.33S843.94,49.42,840.17,49,833.1,53.24,832.78,59.35Z" transform="translate(0 4)"/><path class="cls-3" d="M1160.83,263.59c-.32,6.1,2.48,11.37,6.24,11.77s7.08-4.22,7.39-10.33-2.47-11.37-6.23-11.77S1161.15,257.48,1160.83,263.59Z" transform="translate(0 4)"/><path class="cls-3" d="M1101.2,203.09c-.32,6.11,2.48,11.38,6.24,11.78s7.07-4.22,7.39-10.33-2.47-11.37-6.24-11.77S1101.52,197,1101.2,203.09Z" transform="translate(0 4)"/><path class="cls-3" d="M875.54,212c-.32,6.1,2.48,11.38,6.24,11.78s7.08-4.22,7.39-10.33-2.47-11.38-6.23-11.78S875.86,205.87,875.54,212Z" transform="translate(0 4)"/><path class="cls-3" d="M826,156.9c-.32,6.1,2.47,11.38,6.23,11.78s7.09-4.23,7.41-10.33-2.48-11.38-6.25-11.78S826.33,150.79,826,156.9Z" transform="translate(0 4)"/></g><g class="cls-2"><path class="cls-3" d="M1340.51,313.74c-1.68,4.14-.92,8.5,1.7,9.74s6.12-1.13,7.8-5.26.93-8.5-1.7-9.73S1342.2,309.6,1340.51,313.74Z" transform="translate(0 4)"/><path class="cls-3" d="M1438.31,253.29c-4.91,5.88-6.23,13.52-3,17s9.92,1.63,14.83-4.25,6.24-13.5,3-17S1443.23,247.42,1438.31,253.29Z" transform="translate(0 4)"/><path class="cls-3" d="M1401.82,172.18c-3.39,8.33-2.06,17,3,19.38s11.87-2.45,15.26-10.78,2.06-17-3-19.38S1405.21,163.86,1401.82,172.18Z" transform="translate(0 4)"/><path class="cls-3" d="M1310.49,109.35c-3.39,8.32-2.06,17,3,19.37s11.87-2.45,15.26-10.78,2.06-17-3-19.38S1313.88,101,1310.49,109.35Z" transform="translate(0 4)"/><path class="cls-3" d="M1245.67,137.31c-4.5,11.05-1.14,23.33,7.52,27.4s19.32-1.58,23.82-12.62,1.13-23.32-7.53-27.41S1250.18,126.27,1245.67,137.31Z" transform="translate(0 4)"/><path class="cls-3" d="M1545.21,262.23c-2.58,6.32-1,13.17,3.44,15.28s10.19-1.31,12.77-7.64,1-13.17-3.44-15.29S1547.79,255.89,1545.21,262.23Z" transform="translate(0 4)"/><path class="cls-3" d="M1480.56,266.13c-2.25,5.52-1,11.47,2.89,13.29s8.79-1.19,11-6.72,1-11.48-2.91-13.3S1482.8,260.6,1480.56,266.13Z" transform="translate(0 4)"/><path class="cls-3" d="M1573.06,349.67c-1.69,4.14-.93,8.49,1.7,9.73s6.12-1.11,7.79-5.25.94-8.5-1.7-9.73S1574.74,345.53,1573.06,349.67Z" transform="translate(0 4)"/><path class="cls-3" d="M1342.8,197.77c-1.68,4.14-.92,8.5,1.7,9.74s6.12-1.12,7.8-5.25.93-8.5-1.7-9.74S1344.48,193.64,1342.8,197.77Z" transform="translate(0 4)"/><path class="cls-3" d="M1447.8,170.39c-1.68,4.13-.93,8.49,1.7,9.73s6.12-1.12,7.8-5.25.93-8.5-1.7-9.74S1449.48,166.25,1447.8,170.39Z" transform="translate(0 4)"/><path class="cls-3" d="M1345.6,179.64c-1.69,4.14-.92,8.5,1.7,9.73s6.12-1.11,7.81-5.25.92-8.5-1.7-9.74S1347.29,175.5,1345.6,179.64Z" transform="translate(0 4)"/><path class="cls-3" d="M1346.72,171.56c-1.68,4.15-.92,8.5,1.7,9.74s6.12-1.11,7.8-5.25.93-8.5-1.7-9.74S1348.41,167.43,1346.72,171.56Z" transform="translate(0 4)"/><path class="cls-3" d="M1310.14,250.76a9.05,9.05,0,0,0,4.15,11.55,7.94,7.94,0,0,0,10.71-4.55,9,9,0,0,0-4.15-11.54C1316.76,244.29,1312,246.32,1310.14,250.76Z" transform="translate(0 4)"/><path class="cls-3" d="M1339.05,115.08c-2.36,5.81-1.66,11.75,1.58,13.28s7.78-2,10.15-7.75,1.65-11.75-1.59-13.28S1341.41,109.28,1339.05,115.08Z" transform="translate(0 4)"/><path class="cls-3" d="M1405.47,266.42c-2.31,5.66-1.39,11.57,2,13.18s8.07-1.68,10.38-7.33,1.4-11.57-2-13.17S1407.78,260.75,1405.47,266.42Z" transform="translate(0 4)"/><path class="cls-3" d="M1266.65,21.43c-2.3,5.66-1.4,11.56,2,13.18s8.07-1.67,10.37-7.33,1.41-11.56-2-13.17S1269,15.77,1266.65,21.43Z" transform="translate(0 4)"/><path class="cls-3" d="M1509.47,322.06c-2.31,5.66-1.4,11.56,2,13.17s8.07-1.66,10.38-7.33,1.39-11.55-2-13.17S1511.77,316.39,1509.47,322.06Z" transform="translate(0 4)"/><path class="cls-3" d="M1473,245.34c-2.3,5.66-1.39,11.56,2,13.18s8.06-1.68,10.37-7.33,1.4-11.56-2-13.18S1475.31,239.68,1473,245.34Z" transform="translate(0 4)"/><path class="cls-3" d="M1256.94,179.65c-2.31,5.66-1.4,11.56,2,13.17s8.07-1.67,10.37-7.33,1.41-11.56-2-13.17S1259.24,174,1256.94,179.65Z" transform="translate(0 4)"/><path class="cls-3" d="M1228.24,111.36c-2.31,5.66-1.41,11.56,2,13.17s8.08-1.67,10.39-7.33,1.39-11.56-2-13.17S1230.54,105.69,1228.24,111.36Z" transform="translate(0 4)"/></g><g class="cls-2"><path class="cls-3" d="M1603.59,217.36c-4.42-.69-8.49,1-9.1,3.88s2.49,5.69,6.9,6.39,8.48-1,9.08-3.87S1608,218.06,1603.59,217.36Z" transform="translate(0 4)"/><path class="cls-3" d="M1684.71,298.84c-6.84-3.45-14.58-3-17.27,1s.68,10,7.52,13.48,14.57,3,17.26-1S1691.55,302.29,1684.71,298.84Z" transform="translate(0 4)"/><path class="cls-3" d="M1755.38,244.83c-8.88-1.4-17,1.87-18.19,7.32s5.09,11,14,12.4,17-1.86,18.19-7.31S1764.26,246.25,1755.38,244.83Z" transform="translate(0 4)"/><path class="cls-3" d="M1795.78,141.6c-8.88-1.4-17,1.87-18.19,7.31s5.09,11,14,12.41,17-1.87,18.18-7.32S1804.66,143,1795.78,141.6Z" transform="translate(0 4)"/><path class="cls-3" d="M1753.79,84.85c-11.78-1.87-23,4.2-25,13.56s5.94,18.45,17.72,20.31,23-4.2,25-13.56S1765.58,86.72,1753.79,84.85Z" transform="translate(0 4)"/><path class="cls-3" d="M1700.34,405c-6.74-1.07-13.06,2-14.1,6.82s3.6,9.64,10.36,10.71,13.06-2,14.09-6.84S1707.1,406,1700.34,405Z" transform="translate(0 4)"/><path class="cls-3" d="M1681.83,342.89c-5.9-.93-11.4,1.68-12.29,5.84s3.17,8.3,9.06,9.23,11.4-1.68,12.29-5.85S1687.72,343.82,1681.83,342.89Z" transform="translate(0 4)"/><path class="cls-3" d="M1621.53,452c-4.41-.7-8.48,1-9.09,3.87s2.48,5.71,6.89,6.39,8.49-1,9.09-3.86S1626,452.67,1621.53,452Z" transform="translate(0 4)"/><path class="cls-3" d="M1717,193.2c-4.41-.7-8.49,1-9.09,3.87s2.47,5.7,6.88,6.4,8.49-1,9.1-3.88S1721.44,193.89,1717,193.2Z" transform="translate(0 4)"/><path class="cls-3" d="M1767.6,289.2c-4.41-.7-8.48,1-9.09,3.87s2.48,5.7,6.89,6.4,8.49-1,9.1-3.87S1772,289.9,1767.6,289.2Z" transform="translate(0 4)"/><path class="cls-3" d="M1735.32,191.79c-4.41-.71-8.48,1-9.08,3.87s2.47,5.7,6.89,6.41,8.48-1,9.09-3.87S1739.74,192.49,1735.32,191.79Z" transform="translate(0 4)"/><path class="cls-3" d="M1743.44,191c-4.42-.69-8.48,1-9.09,3.87s2.48,5.71,6.89,6.41,8.48-1,9.09-3.88S1747.85,191.75,1743.44,191Z" transform="translate(0 4)"/><path class="cls-3" d="M1658,173.45a9,9,0,0,0-10.3,6.67,7.93,7.93,0,0,0,6.86,9.39,9,9,0,0,0,10.3-6.67C1665.81,178.42,1662.73,174.21,1658,173.45Z" transform="translate(0 4)"/><path class="cls-3" d="M1796.69,170.71c-6.19-1-11.81,1.06-12.56,4.57s3.66,7.13,9.85,8.11,11.82-1.06,12.57-4.57S1802.88,171.69,1796.69,170.71Z" transform="translate(0 4)"/><path class="cls-3" d="M1664.45,269.85c-6-1-11.58,1.27-12.37,5s3.47,7.47,9.5,8.43,11.58-1.26,12.36-5S1670.49,270.8,1664.45,269.85Z" transform="translate(0 4)"/><path class="cls-3" d="M1871.41,78.9c-6-1-11.58,1.27-12.37,5s3.46,7.48,9.5,8.43,11.57-1.26,12.36-5S1877.44,79.86,1871.41,78.9Z" transform="translate(0 4)"/><path class="cls-3" d="M1633.94,383.78c-6-1-11.57,1.26-12.36,5s3.46,7.48,9.5,8.44,11.57-1.27,12.36-5S1640,384.73,1633.94,383.78Z" transform="translate(0 4)"/><path class="cls-3" d="M1700.35,330.8c-6-.95-11.58,1.27-12.37,5s3.47,7.48,9.5,8.44,11.57-1.27,12.37-5S1706.39,331.76,1700.35,330.8Z" transform="translate(0 4)"/><path class="cls-3" d="M1715.13,105.46c-6-1-11.57,1.27-12.36,5s3.46,7.47,9.49,8.43,11.58-1.27,12.37-5S1721.17,106.41,1715.13,105.46Z" transform="translate(0 4)"/><path class="cls-3" d="M1775.1,62c-6-1-11.58,1.27-12.37,5s3.46,7.49,9.5,8.45,11.57-1.27,12.36-5S1781.14,62.92,1775.1,62Z" transform="translate(0 4)"/></g><g class="cls-2"><path class="cls-3" d="M1513.6,541.72c-3.95-2.1-8.36-1.81-9.87.68s.48,6.2,4.42,8.3,8.35,1.81,9.85-.67S1517.53,543.83,1513.6,541.72Z" transform="translate(0 4)"/><path class="cls-3" d="M1563.47,645.31c-5.33-5.49-12.78-7.6-16.63-4.72s-2.66,9.7,2.67,15.2,12.78,7.62,16.63,4.72S1568.8,650.82,1563.47,645.31Z" transform="translate(0 4)"/><path class="cls-3" d="M1648,617.51c-7.93-4.24-16.7-3.82-19.59.94s1.2,12.06,9.13,16.3,16.69,3.83,19.58-.94S1655.88,621.76,1648,617.51Z" transform="translate(0 4)"/><path class="cls-3" d="M1720,533.26c-7.93-4.24-16.69-3.82-19.58.94s1.2,12.06,9.13,16.3,16.69,3.83,19.58-.94S1727.94,537.51,1720,533.26Z" transform="translate(0 4)"/><path class="cls-3" d="M1699,465.87c-10.52-5.63-23.08-3.58-28,4.61s-.45,19.38,10.07,25,23.07,3.57,28-4.62S1709.5,471.51,1699,465.87Z" transform="translate(0 4)"/><path class="cls-3" d="M1543.4,750.69c-6-3.23-13-2.42-15.56,1.82s.23,10.27,6.26,13.5,13,2.42,15.56-1.82S1549.43,753.92,1543.4,750.69Z" transform="translate(0 4)"/><path class="cls-3" d="M1546.29,686c-5.27-2.81-11.32-2.15-13.53,1.48s.27,8.88,5.53,11.7,11.31,2.15,13.53-1.5S1551.54,688.79,1546.29,686Z" transform="translate(0 4)"/><path class="cls-3" d="M1453.52,769.23c-3.94-2.12-8.35-1.81-9.86.67s.47,6.2,4.41,8.3,8.35,1.82,9.86-.67S1457.46,771.33,1453.52,769.23Z" transform="translate(0 4)"/><path class="cls-3" d="M1628.68,556.14c-3.94-2.11-8.35-1.81-9.86.67s.47,6.2,4.41,8.31,8.36,1.81,9.86-.67S1632.62,558.24,1628.68,556.14Z" transform="translate(0 4)"/><path class="cls-3" d="M1644.93,663.43c-3.93-2.11-8.35-1.81-9.86.67s.47,6.2,4.41,8.31,8.36,1.81,9.86-.67S1648.87,665.53,1644.93,663.43Z" transform="translate(0 4)"/><path class="cls-3" d="M1646.43,560.82c-3.94-2.11-8.36-1.8-9.86.67s.47,6.2,4.41,8.32,8.35,1.81,9.86-.67S1650.36,562.93,1646.43,560.82Z" transform="translate(0 4)"/><path class="cls-3" d="M1654.34,562.78c-3.94-2.11-8.36-1.81-9.86.67s.47,6.21,4.4,8.31,8.36,1.82,9.87-.67S1658.27,564.9,1654.34,562.78Z" transform="translate(0 4)"/><path class="cls-3" d="M1579.41,518.11a9.05,9.05,0,0,0-11.92,2.92,7.93,7.93,0,0,0,3.4,11.12,9,9,0,0,0,11.92-2.91C1585.15,525.37,1583.63,520.39,1579.41,518.11Z" transform="translate(0 4)"/><path class="cls-3" d="M1711.32,561.06c-5.53-2.95-11.52-2.88-13.37.19s1.12,7.94,6.64,10.9S1716.1,575,1718,572,1716.84,564,1711.32,561.06Z" transform="translate(0 4)"/><path class="cls-3" d="M1553.85,611.28c-5.38-2.89-11.35-2.6-13.31.64s.82,8.19,6.2,11.08,11.36,2.61,13.31-.64S1559.25,614.16,1553.85,611.28Z" transform="translate(0 4)"/><path class="cls-3" d="M1812,498.87c-5.39-2.88-11.35-2.6-13.32.64s.82,8.2,6.21,11.08,11.35,2.61,13.31-.64S1817.41,501.76,1812,498.87Z" transform="translate(0 4)"/><path class="cls-3" d="M1487.63,708.88c-5.38-2.89-11.34-2.6-13.3.63s.8,8.2,6.2,11.09,11.34,2.6,13.3-.64S1493,711.76,1487.63,708.88Z" transform="translate(0 4)"/><path class="cls-3" d="M1567.75,680.64c-5.39-2.88-11.35-2.59-13.31.64s.81,8.2,6.2,11.08,11.34,2.6,13.31-.63S1573.14,683.53,1567.75,680.64Z" transform="translate(0 4)"/><path class="cls-3" d="M1655.7,472.65c-5.39-2.89-11.35-2.61-13.31.63s.81,8.2,6.2,11.08,11.35,2.61,13.31-.63S1661.09,475.53,1655.7,472.65Z" transform="translate(0 4)"/><path class="cls-3" d="M1726.62,451.25c-5.39-2.88-11.35-2.61-13.31.63s.81,8.21,6.2,11.09,11.35,2.6,13.31-.64S1732,454.14,1726.62,451.25Z" transform="translate(0 4)"/></g><g class="cls-2"><path class="cls-3" d="M39.16,3585.19c-3.66-2.57-5.38-6.65-3.85-9.11s5.75-2.37,9.41.19,5.38,6.64,3.84,9.1S42.82,3587.75,39.16,3585.19Z" transform="translate(0 4)"/><path class="cls-3" d="M154.11,3583c-7.31-2.28-12.56-8-11.71-12.72s7.45-6.74,14.77-4.47,12.56,8,11.71,12.72S161.43,3585.26,154.11,3583Z" transform="translate(0 4)"/><path class="cls-3" d="M167.39,3670.94c-7.35-5.17-10.94-13.19-8-17.91s11.3-4.37,18.66.79,10.95,13.18,8,17.9S174.76,3676.09,167.39,3670.94Z" transform="translate(0 4)"/><path class="cls-3" d="M124.69,3773.23c-7.36-5.16-10.94-13.17-8-17.9s11.31-4.36,18.67.8,10.94,13.17,8,17.9S132.05,3778.4,124.69,3773.23Z" transform="translate(0 4)"/><path class="cls-3" d="M55.06,3784.86c-9.77-6.85-13.6-19-8.53-27.11s17.09-9.14,26.86-2.29,13.59,19,8.52,27.11S64.83,3791.7,55.06,3784.86Z" transform="translate(0 4)"/><path class="cls-3" d="M239.11,3517.55c-5.6-3.92-8-10.5-5.39-14.71s9.27-4.42,14.88-.5,8,10.51,5.38,14.72S244.71,3521.48,239.11,3517.55Z" transform="translate(0 4)"/><path class="cls-3" d="M182.66,3549.31c-4.89-3.43-7-9.13-4.78-12.74s8.05-3.76,12.93-.34,7,9.13,4.77,12.75S187.54,3552.73,182.66,3549.31Z" transform="translate(0 4)"/><path class="cls-3" d="M215.13,3429c-3.67-2.56-5.38-6.64-3.85-9.1s5.75-2.38,9.4.19,5.39,6.63,3.85,9.1S218.78,3431.54,215.13,3429Z" transform="translate(0 4)"/><path class="cls-3" d="M103.93,3681.4c-3.66-2.56-5.38-6.64-3.85-9.1s5.74-2.37,9.4.19,5.39,6.64,3.85,9.1S107.58,3684,103.93,3681.4Z" transform="translate(0 4)"/><path class="cls-3" d="M207,3647.53c-3.65-2.57-5.38-6.64-3.84-9.1s5.74-2.38,9.4.18,5.38,6.64,3.85,9.11S210.67,3650.09,207,3647.53Z" transform="translate(0 4)"/><path class="cls-3" d="M116.11,3695.13c-3.67-2.56-5.38-6.64-3.85-9.1s5.75-2.38,9.41.18,5.38,6.65,3.85,9.1S119.77,3697.69,116.11,3695.13Z" transform="translate(0 4)"/><path class="cls-3" d="M121.42,3701.31c-3.66-2.57-5.38-6.64-3.85-9.1s5.76-2.38,9.41.18,5.39,6.64,3.85,9.11S125.08,3703.87,121.42,3701.31Z" transform="translate(0 4)"/><path class="cls-3" d="M47.76,3654.57a9,9,0,0,1-2.76-12,7.92,7.92,0,0,1,11.45-2,9,9,0,0,1,2.77,12C56.83,3656.43,51.7,3657.32,47.76,3654.57Z" transform="translate(0 4)"/><path class="cls-3" d="M145.58,3752.94c-5.13-3.6-7.76-9-5.86-12s7.59-2.58,12.72,1,7.76,9,5.86,12S150.71,3756.53,145.58,3752.94Z" transform="translate(0 4)"/><path class="cls-3" d="M119.4,3589.75c-5-3.5-7.44-9-5.44-12.17s7.69-3,12.69.53,7.45,9,5.43,12.18S124.4,3593.26,119.4,3589.75Z" transform="translate(0 4)"/><path class="cls-3" d="M135.49,3870.88c-5-3.51-7.44-9-5.44-12.18s7.69-3,12.69.55,7.45,8.95,5.44,12.16S140.5,3874.38,135.49,3870.88Z" transform="translate(0 4)"/><path class="cls-3" d="M176.64,3486.63c-5-3.5-7.43-9-5.43-12.16s7.68-3,12.69.54,7.44,8.95,5.44,12.16S181.65,3490.15,176.64,3486.63Z" transform="translate(0 4)"/><path class="cls-3" d="M187.57,3570.88c-5-3.52-7.43-9-5.43-12.18s7.68-3,12.69.54,7.43,9,5.43,12.17S192.58,3574.38,187.57,3570.88Z" transform="translate(0 4)"/><path class="cls-3" d="M41.59,3743.17c-5-3.5-7.44-9-5.44-12.17s7.68-3,12.68.54,7.45,8.95,5.45,12.17S46.59,3746.68,41.59,3743.17Z" transform="translate(0 4)"/><path class="cls-3" d="M54.47,3816.12c-5-3.51-7.44-9-5.44-12.16s7.69-3,12.7.52,7.43,9,5.43,12.18S59.48,3819.63,54.47,3816.12Z" transform="translate(0 4)"/></g><g class="cls-2"><path class="cls-3" d="M565.32,3582.25c-1.69-4.15-.93-8.51,1.7-9.75s6.12,1.13,7.8,5.26.92,8.5-1.7,9.73S567,3586.38,565.32,3582.25Z" transform="translate(0 4)"/><path class="cls-3" d="M663.12,3642.69c-4.91-5.88-6.23-13.51-3-17s9.91-1.62,14.83,4.25,6.24,13.5,3,17S668,3648.57,663.12,3642.69Z" transform="translate(0 4)"/><path class="cls-3" d="M626.62,3723.8c-3.38-8.33-2-17,3-19.38s11.86,2.45,15.25,10.78,2.06,17-3,19.38S630,3732.13,626.62,3723.8Z" transform="translate(0 4)"/><path class="cls-3" d="M535.3,3786.64c-3.39-8.33-2.06-17,3-19.38s11.86,2.45,15.25,10.78,2.06,17-3,19.38S538.69,3795,535.3,3786.64Z" transform="translate(0 4)"/><path class="cls-3" d="M470.47,3758.67c-4.5-11.05-1.14-23.33,7.52-27.4s19.32,1.58,23.82,12.63,1.13,23.32-7.53,27.4S475,3769.72,470.47,3758.67Z" transform="translate(0 4)"/><path class="cls-3" d="M770,3633.75c-2.58-6.32-1-13.17,3.43-15.28s10.2,1.31,12.78,7.65,1,13.17-3.45,15.28S772.59,3640.09,770,3633.75Z" transform="translate(0 4)"/><path class="cls-3" d="M705.36,3629.85c-2.25-5.52-1-11.47,2.89-13.29s8.8,1.2,11,6.72,1,11.48-2.9,13.3S707.61,3635.38,705.36,3629.85Z" transform="translate(0 4)"/><path class="cls-3" d="M797.86,3546.31c-1.69-4.14-.92-8.49,1.7-9.73s6.12,1.11,7.8,5.25.93,8.5-1.7,9.73S799.54,3550.45,797.86,3546.31Z" transform="translate(0 4)"/><path class="cls-3" d="M567.61,3698.21c-1.69-4.14-.92-8.5,1.7-9.74s6.11,1.12,7.8,5.25.93,8.51-1.7,9.74S569.29,3702.34,567.61,3698.21Z" transform="translate(0 4)"/><path class="cls-3" d="M672.6,3725.6c-1.68-4.14-.92-8.49,1.7-9.74s6.12,1.12,7.81,5.25.92,8.51-1.71,9.75S674.29,3729.73,672.6,3725.6Z" transform="translate(0 4)"/><path class="cls-3" d="M570.41,3716.34c-1.7-4.13-.92-8.5,1.7-9.73s6.11,1.12,7.8,5.25.93,8.5-1.69,9.74S572.09,3720.48,570.41,3716.34Z" transform="translate(0 4)"/><path class="cls-3" d="M571.52,3724.42c-1.68-4.15-.92-8.5,1.7-9.74s6.13,1.12,7.81,5.25.93,8.5-1.7,9.74S573.22,3728.55,571.52,3724.42Z" transform="translate(0 4)"/><path class="cls-3" d="M535,3645.22a9,9,0,0,1,4.15-11.54c4.1-1.94,8.89.1,10.7,4.54a9,9,0,0,1-4.15,11.54C541.56,3651.69,536.77,3649.66,535,3645.22Z" transform="translate(0 4)"/><path class="cls-3" d="M563.85,3780.9c-2.36-5.81-1.66-11.75,1.58-13.28s7.78,2,10.15,7.75,1.66,11.75-1.59,13.28S566.22,3786.7,563.85,3780.9Z" transform="translate(0 4)"/><path class="cls-3" d="M630.28,3629.56c-2.31-5.66-1.39-11.56,2-13.17s8.06,1.67,10.37,7.32,1.4,11.57-2,13.18S632.58,3635.23,630.28,3629.56Z" transform="translate(0 4)"/><path class="cls-3" d="M491.46,3874.55c-2.3-5.66-1.4-11.56,2-13.18s8.07,1.67,10.38,7.34,1.4,11.55-2,13.17S493.77,3880.21,491.46,3874.55Z" transform="translate(0 4)"/><path class="cls-3" d="M734.27,3573.92c-2.3-5.66-1.39-11.55,2-13.17s8.08,1.66,10.38,7.33,1.4,11.56-2,13.17S736.58,3579.59,734.27,3573.92Z" transform="translate(0 4)"/><path class="cls-3" d="M697.8,3650.64c-2.3-5.66-1.39-11.56,2-13.17s8.07,1.67,10.38,7.33,1.4,11.55-2,13.17S700.12,3656.3,697.8,3650.64Z" transform="translate(0 4)"/><path class="cls-3" d="M481.74,3716.34c-2.3-5.67-1.39-11.57,2-13.18s8.07,1.67,10.37,7.33,1.4,11.56-2,13.17S484.05,3722,481.74,3716.34Z" transform="translate(0 4)"/><path class="cls-3" d="M453,3784.62c-2.3-5.66-1.4-11.56,2-13.17s8.08,1.67,10.38,7.33,1.4,11.56-2,13.17S455.35,3790.29,453,3784.62Z" transform="translate(0 4)"/></g><g class="cls-2"><path class="cls-3" d="M300.42,3448.63c-3.66,2.57-5.38,6.64-3.85,9.11s5.75,2.37,9.4-.19,5.39-6.65,3.85-9.1S304.08,3446.07,300.42,3448.63Z" transform="translate(0 4)"/><path class="cls-3" d="M415.37,3450.83c-7.31,2.28-12.56,8-11.72,12.72s7.46,6.74,14.78,4.47,12.55-8,11.71-12.72S422.69,3448.56,415.37,3450.83Z" transform="translate(0 4)"/><path class="cls-3" d="M428.65,3362.88c-7.35,5.17-10.94,13.19-8,17.91s11.3,4.37,18.66-.8,10.95-13.17,8-17.9S436,3357.73,428.65,3362.88Z" transform="translate(0 4)"/><path class="cls-3" d="M386,3260.58c-7.36,5.17-10.94,13.18-8,17.9s11.31,4.37,18.67-.79,10.94-13.18,8-17.9S393.31,3255.42,386,3260.58Z" transform="translate(0 4)"/><path class="cls-3" d="M316.31,3249c-9.77,6.85-13.59,19-8.52,27.1s17.09,9.15,26.86,2.3,13.59-19,8.52-27.11S326.09,3242.12,316.31,3249Z" transform="translate(0 4)"/><path class="cls-3" d="M500.37,3516.27c-5.6,3.91-8,10.5-5.4,14.7s9.28,4.43,14.88.5,8-10.5,5.39-14.71S506,3512.34,500.37,3516.27Z" transform="translate(0 4)"/><path class="cls-3" d="M443.92,3484.51c-4.89,3.42-7,9.12-4.78,12.74s8,3.76,12.93.34,7-9.13,4.77-12.75S448.8,3481.08,443.92,3484.51Z" transform="translate(0 4)"/><path class="cls-3" d="M476.39,3604.85c-3.67,2.56-5.38,6.63-3.85,9.1s5.75,2.38,9.4-.19,5.39-6.64,3.84-9.1S480,3602.28,476.39,3604.85Z" transform="translate(0 4)"/><path class="cls-3" d="M365.19,3352.41c-3.66,2.57-5.38,6.64-3.85,9.11s5.74,2.37,9.4-.19,5.39-6.64,3.85-9.11S368.84,3349.85,365.19,3352.41Z" transform="translate(0 4)"/><path class="cls-3" d="M468.27,3386.29c-3.65,2.56-5.38,6.64-3.85,9.1s5.75,2.38,9.41-.18,5.38-6.64,3.85-9.11S471.93,3383.73,468.27,3386.29Z" transform="translate(0 4)"/><path class="cls-3" d="M377.37,3338.69c-3.67,2.56-5.38,6.64-3.85,9.1s5.74,2.37,9.41-.19,5.38-6.64,3.85-9.1S381,3336.12,377.37,3338.69Z" transform="translate(0 4)"/><path class="cls-3" d="M382.68,3332.5c-3.66,2.58-5.38,6.65-3.85,9.11s5.75,2.38,9.41-.18,5.39-6.64,3.85-9.11S386.34,3330,382.68,3332.5Z" transform="translate(0 4)"/><path class="cls-3" d="M309,3379.25a9,9,0,0,0-2.77,11.95,7.93,7.93,0,0,0,11.46,2,9,9,0,0,0,2.77-11.95C318.09,3377.39,313,3376.5,309,3379.25Z" transform="translate(0 4)"/><path class="cls-3" d="M406.84,3280.88c-5.13,3.6-7.76,9-5.86,12s7.59,2.58,12.72-1,7.76-9,5.86-12S412,3277.29,406.84,3280.88Z" transform="translate(0 4)"/><path class="cls-3" d="M380.66,3444.07c-5,3.5-7.44,9-5.44,12.17s7.69,3,12.69-.54,7.45-9,5.43-12.17S385.66,3440.55,380.66,3444.07Z" transform="translate(0 4)"/><path class="cls-3" d="M396.75,3162.94c-5,3.51-7.44,9-5.44,12.17s7.69,3,12.69-.54,7.45-9,5.44-12.17S401.76,3159.44,396.75,3162.94Z" transform="translate(0 4)"/><path class="cls-3" d="M437.9,3547.19c-5,3.5-7.43,8.95-5.43,12.16s7.68,3,12.69-.54,7.44-8.95,5.43-12.16S442.91,3543.67,437.9,3547.19Z" transform="translate(0 4)"/><path class="cls-3" d="M448.83,3462.94c-5,3.52-7.44,9-5.44,12.17s7.69,3,12.7-.53,7.43-9,5.43-12.18S453.84,3459.44,448.83,3462.94Z" transform="translate(0 4)"/><path class="cls-3" d="M302.85,3290.65c-5,3.5-7.45,9-5.44,12.16s7.68,3,12.68-.54,7.45-8.95,5.45-12.16S307.85,3287.14,302.85,3290.65Z" transform="translate(0 4)"/><path class="cls-3" d="M315.73,3217.7c-5,3.51-7.45,9-5.44,12.16s7.69,3,12.7-.53,7.43-9,5.43-12.17S320.74,3214.19,315.73,3217.7Z" transform="translate(0 4)"/></g><g class="cls-2"><path class="cls-3" d="M826.58,3451.57c-1.69,4.15-.93,8.5,1.7,9.74s6.11-1.12,7.8-5.25.92-8.51-1.7-9.74S828.26,3447.44,826.58,3451.57Z" transform="translate(0 4)"/><path class="cls-3" d="M924.38,3391.13c-4.91,5.88-6.23,13.51-3,17s9.92,1.62,14.84-4.25,6.24-13.51,3-17S929.3,3385.25,924.38,3391.13Z" transform="translate(0 4)"/><path class="cls-3" d="M887.88,3310c-3.38,8.33-2,17,3,19.38s11.87-2.46,15.26-10.79,2.06-17-3-19.37S891.28,3301.69,887.88,3310Z" transform="translate(0 4)"/><path class="cls-3" d="M796.56,3247.18c-3.39,8.33-2.06,17,3,19.38s11.86-2.46,15.25-10.79,2.06-17-3-19.37S800,3238.85,796.56,3247.18Z" transform="translate(0 4)"/><path class="cls-3" d="M731.73,3275.15c-4.5,11-1.14,23.33,7.52,27.4s19.32-1.58,23.82-12.63,1.13-23.32-7.53-27.4S736.24,3264.1,731.73,3275.15Z" transform="translate(0 4)"/><path class="cls-3" d="M1031.28,3400.06c-2.59,6.33-1,13.17,3.43,15.29s10.2-1.31,12.78-7.65,1-13.17-3.45-15.28S1033.85,3393.73,1031.28,3400.06Z" transform="translate(0 4)"/><path class="cls-3" d="M966.62,3404c-2.25,5.53-1,11.48,2.89,13.3s8.8-1.2,11-6.73,1-11.47-2.9-13.29S968.87,3398.44,966.62,3404Z" transform="translate(0 4)"/><path class="cls-3" d="M1059.12,3487.51c-1.69,4.14-.92,8.49,1.7,9.73s6.12-1.11,7.8-5.25.93-8.5-1.7-9.74S1060.8,3483.37,1059.12,3487.51Z" transform="translate(0 4)"/><path class="cls-3" d="M828.87,3335.61c-1.69,4.14-.92,8.5,1.7,9.74s6.11-1.12,7.8-5.25.93-8.51-1.7-9.74S830.55,3331.47,828.87,3335.61Z" transform="translate(0 4)"/><path class="cls-3" d="M933.86,3308.22c-1.68,4.13-.92,8.49,1.7,9.73s6.12-1.11,7.81-5.25.92-8.5-1.71-9.74S935.55,3304.09,933.86,3308.22Z" transform="translate(0 4)"/><path class="cls-3" d="M831.67,3317.47c-1.7,4.14-.93,8.5,1.7,9.74s6.11-1.12,7.8-5.26.93-8.5-1.69-9.73S833.35,3313.34,831.67,3317.47Z" transform="translate(0 4)"/><path class="cls-3" d="M832.78,3309.4c-1.68,4.14-.92,8.5,1.7,9.74s6.13-1.12,7.81-5.25.93-8.5-1.7-9.74S834.48,3305.27,832.78,3309.4Z" transform="translate(0 4)"/><path class="cls-3" d="M796.21,3388.6a9,9,0,0,0,4.15,11.54c4.1,1.94,8.89-.1,10.7-4.54a9,9,0,0,0-4.15-11.55C802.82,3382.12,798,3384.16,796.21,3388.6Z" transform="translate(0 4)"/><path class="cls-3" d="M825.11,3252.92c-2.36,5.8-1.66,11.75,1.58,13.27s7.78-1.94,10.15-7.74,1.66-11.75-1.59-13.28S827.48,3247.12,825.11,3252.92Z" transform="translate(0 4)"/><path class="cls-3" d="M891.54,3404.26c-2.31,5.66-1.4,11.56,2,13.17s8.06-1.67,10.37-7.33,1.4-11.56-2-13.17S893.84,3398.59,891.54,3404.26Z" transform="translate(0 4)"/><path class="cls-3" d="M752.72,3159.27c-2.3,5.66-1.4,11.56,2,13.17s8.07-1.67,10.37-7.33,1.41-11.56-2-13.17S755,3153.61,752.72,3159.27Z" transform="translate(0 4)"/><path class="cls-3" d="M995.53,3459.9c-2.3,5.65-1.4,11.55,2,13.16s8.08-1.66,10.38-7.32,1.4-11.56-2-13.17S997.84,3454.23,995.53,3459.9Z" transform="translate(0 4)"/><path class="cls-3" d="M959.06,3383.18c-2.3,5.66-1.39,11.56,2,13.17s8.07-1.67,10.38-7.33,1.39-11.55-2-13.17S961.38,3377.51,959.06,3383.18Z" transform="translate(0 4)"/><path class="cls-3" d="M743,3317.48c-2.31,5.66-1.4,11.56,2,13.18s8.06-1.67,10.37-7.33,1.4-11.56-2-13.18S745.31,3311.82,743,3317.48Z" transform="translate(0 4)"/><path class="cls-3" d="M714.3,3249.19c-2.3,5.66-1.41,11.56,2,13.17s8.08-1.66,10.38-7.32,1.4-11.56-2-13.18S716.61,3243.53,714.3,3249.19Z" transform="translate(0 4)"/></g><g class="cls-2"><path class="cls-3" d="M836.1,3600c-3.66-2.57-5.39-6.64-3.85-9.11s5.75-2.37,9.4.19,5.39,6.65,3.85,9.1S839.75,3602.51,836.1,3600Z" transform="translate(0 4)"/><path class="cls-3" d="M951.05,3597.75c-7.31-2.28-12.56-8-11.72-12.72s7.46-6.74,14.77-4.47,12.56,8,11.72,12.72S958.37,3600,951.05,3597.75Z" transform="translate(0 4)"/><path class="cls-3" d="M964.33,3685.7c-7.36-5.17-10.94-13.19-8-17.91s11.31-4.37,18.67.79,11,13.18,8,17.9S971.7,3690.85,964.33,3685.7Z" transform="translate(0 4)"/><path class="cls-3" d="M921.63,3788c-7.36-5.16-11-13.17-8-17.89s11.31-4.37,18.67.79,10.94,13.17,8,17.9S929,3793.16,921.63,3788Z" transform="translate(0 4)"/><path class="cls-3" d="M852,3799.62c-9.77-6.85-13.6-19-8.52-27.11s17.09-9.14,26.85-2.29,13.6,19,8.53,27.11S861.77,3806.46,852,3799.62Z" transform="translate(0 4)"/><path class="cls-3" d="M1036.05,3532.31c-5.6-3.92-8-10.5-5.4-14.71s9.28-4.42,14.88-.5,8,10.51,5.39,14.72S1041.65,3536.24,1036.05,3532.31Z" transform="translate(0 4)"/><path class="cls-3" d="M979.6,3564.07c-4.89-3.43-7-9.13-4.78-12.74s8-3.76,12.93-.34,7,9.13,4.77,12.75S984.48,3567.49,979.6,3564.07Z" transform="translate(0 4)"/><path class="cls-3" d="M1012.06,3443.73c-3.66-2.56-5.37-6.64-3.84-9.1s5.74-2.38,9.4.19,5.39,6.63,3.84,9.1S1015.72,3446.3,1012.06,3443.73Z" transform="translate(0 4)"/><path class="cls-3" d="M900.87,3696.16c-3.66-2.56-5.39-6.64-3.85-9.1s5.74-2.37,9.4.19,5.39,6.64,3.85,9.11S904.52,3698.73,900.87,3696.16Z" transform="translate(0 4)"/><path class="cls-3" d="M1004,3662.29c-3.66-2.57-5.38-6.64-3.85-9.1s5.75-2.38,9.41.18,5.38,6.64,3.84,9.11S1007.6,3664.85,1004,3662.29Z" transform="translate(0 4)"/><path class="cls-3" d="M913,3709.89c-3.66-2.56-5.38-6.64-3.84-9.1s5.74-2.38,9.41.18,5.38,6.65,3.85,9.1S916.7,3712.45,913,3709.89Z" transform="translate(0 4)"/><path class="cls-3" d="M918.36,3716.07c-3.66-2.57-5.38-6.64-3.85-9.1s5.75-2.38,9.41.18,5.38,6.64,3.85,9.11S922,3718.63,918.36,3716.07Z" transform="translate(0 4)"/><path class="cls-3" d="M844.7,3669.33a9,9,0,0,1-2.77-11.95,7.93,7.93,0,0,1,11.46-2,9,9,0,0,1,2.77,11.95C853.77,3671.19,848.63,3672.08,844.7,3669.33Z" transform="translate(0 4)"/><path class="cls-3" d="M942.52,3767.7c-5.13-3.6-7.76-9-5.87-12s7.6-2.58,12.73,1,7.76,9,5.86,12S947.65,3771.29,942.52,3767.7Z" transform="translate(0 4)"/><path class="cls-3" d="M916.33,3604.51c-5-3.5-7.43-9-5.43-12.17s7.68-3,12.69.54,7.45,9,5.43,12.17S921.34,3608,916.33,3604.51Z" transform="translate(0 4)"/><path class="cls-3" d="M932.43,3885.64c-5-3.51-7.45-9-5.44-12.18s7.69-3,12.69.55,7.44,8.95,5.43,12.16S937.43,3889.14,932.43,3885.64Z" transform="translate(0 4)"/><path class="cls-3" d="M973.58,3501.39c-5-3.5-7.43-8.95-5.43-12.16s7.68-3,12.69.54,7.44,8.95,5.43,12.16S978.59,3504.91,973.58,3501.39Z" transform="translate(0 4)"/><path class="cls-3" d="M984.51,3585.64c-5-3.52-7.44-9-5.44-12.18s7.69-3,12.69.54,7.44,8.95,5.44,12.17S989.52,3589.14,984.51,3585.64Z" transform="translate(0 4)"/><path class="cls-3" d="M838.52,3757.93c-5-3.5-7.44-9-5.43-12.17s7.68-3,12.68.54,7.45,8.95,5.44,12.17S843.53,3761.44,838.52,3757.93Z" transform="translate(0 4)"/><path class="cls-3" d="M851.41,3830.88c-5-3.51-7.45-9-5.44-12.16s7.69-3,12.69.52,7.44,9,5.44,12.18S856.42,3834.39,851.41,3830.88Z" transform="translate(0 4)"/></g><g class="cls-2"><path class="cls-3" d="M1362.25,3597c-1.68-4.15-.92-8.51,1.71-9.75s6.11,1.13,7.8,5.26.92,8.5-1.7,9.73S1363.94,3601.14,1362.25,3597Z" transform="translate(0 4)"/><path class="cls-3" d="M1460.06,3657.45c-4.91-5.88-6.23-13.51-3-17s9.92-1.62,14.84,4.25,6.23,13.5,3,17S1465,3663.33,1460.06,3657.45Z" transform="translate(0 4)"/><path class="cls-3" d="M1423.56,3738.56c-3.38-8.33-2-17,3-19.38s11.87,2.45,15.26,10.78,2.06,17-3,19.38S1427,3746.89,1423.56,3738.56Z" transform="translate(0 4)"/><path class="cls-3" d="M1332.23,3801.4c-3.39-8.33-2.06-17,3-19.38s11.87,2.45,15.26,10.79,2.06,17-3,19.37S1335.62,3809.73,1332.23,3801.4Z" transform="translate(0 4)"/><path class="cls-3" d="M1267.41,3773.43c-4.5-11-1.14-23.33,7.52-27.4s19.32,1.58,23.82,12.63,1.13,23.32-7.53,27.4S1271.92,3784.48,1267.41,3773.43Z" transform="translate(0 4)"/><path class="cls-3" d="M1567,3648.51c-2.59-6.32-1-13.17,3.43-15.28s10.2,1.31,12.78,7.65,1,13.17-3.45,15.28S1569.53,3654.85,1567,3648.51Z" transform="translate(0 4)"/><path class="cls-3" d="M1502.3,3644.62c-2.25-5.53-1-11.48,2.89-13.3s8.8,1.2,11,6.72,1,11.48-2.9,13.3S1504.54,3650.14,1502.3,3644.62Z" transform="translate(0 4)"/><path class="cls-3" d="M1594.8,3561.07c-1.69-4.14-.92-8.49,1.7-9.73s6.12,1.11,7.79,5.25.94,8.5-1.69,9.74S1596.48,3565.21,1594.8,3561.07Z" transform="translate(0 4)"/><path class="cls-3" d="M1364.55,3713c-1.69-4.14-.93-8.5,1.7-9.74s6.11,1.12,7.8,5.25.92,8.51-1.7,9.74S1366.23,3717.1,1364.55,3713Z" transform="translate(0 4)"/><path class="cls-3" d="M1469.54,3740.36c-1.68-4.14-.92-8.49,1.7-9.74s6.12,1.12,7.81,5.26.92,8.5-1.71,9.74S1471.23,3744.49,1469.54,3740.36Z" transform="translate(0 4)"/><path class="cls-3" d="M1367.34,3731.1c-1.69-4.13-.92-8.49,1.7-9.73s6.12,1.12,7.81,5.25.93,8.5-1.69,9.74S1369,3735.24,1367.34,3731.1Z" transform="translate(0 4)"/><path class="cls-3" d="M1368.46,3739.18c-1.68-4.15-.92-8.5,1.7-9.74s6.13,1.12,7.81,5.25.93,8.5-1.7,9.74S1370.15,3743.31,1368.46,3739.18Z" transform="translate(0 4)"/><path class="cls-3" d="M1331.89,3660a9,9,0,0,1,4.15-11.54c4.1-1.94,8.89.1,10.7,4.54a9,9,0,0,1-4.15,11.54A7.93,7.93,0,0,1,1331.89,3660Z" transform="translate(0 4)"/><path class="cls-3" d="M1360.79,3795.66c-2.36-5.81-1.66-11.75,1.58-13.28s7.78,1.95,10.15,7.75,1.66,11.75-1.59,13.28S1363.15,3801.46,1360.79,3795.66Z" transform="translate(0 4)"/><path class="cls-3" d="M1427.22,3644.32c-2.31-5.66-1.4-11.56,2-13.17s8.07,1.67,10.38,7.32,1.4,11.57-2,13.18S1429.52,3650,1427.22,3644.32Z" transform="translate(0 4)"/><path class="cls-3" d="M1288.4,3889.31c-2.3-5.66-1.4-11.56,2-13.18s8.07,1.68,10.37,7.34,1.41,11.55-2,13.17S1290.71,3895,1288.4,3889.31Z" transform="translate(0 4)"/><path class="cls-3" d="M1531.21,3588.68c-2.3-5.66-1.4-11.55,2-13.17s8.07,1.66,10.38,7.33,1.4,11.56-2,13.17S1533.52,3594.35,1531.21,3588.68Z" transform="translate(0 4)"/><path class="cls-3" d="M1494.74,3665.4c-2.3-5.66-1.39-11.56,2-13.17s8.07,1.67,10.37,7.33,1.4,11.55-2,13.17S1497.05,3671.06,1494.74,3665.4Z" transform="translate(0 4)"/><path class="cls-3" d="M1278.68,3731.1c-2.31-5.66-1.4-11.57,2-13.18s8.07,1.67,10.37,7.33,1.41,11.56-2,13.17S1281,3736.76,1278.68,3731.1Z" transform="translate(0 4)"/><path class="cls-3" d="M1250,3799.38c-2.31-5.66-1.41-11.55,2-13.17s8.08,1.67,10.38,7.33,1.4,11.56-2,13.17S1252.29,3805.05,1250,3799.38Z" transform="translate(0 4)"/></g><g class="cls-2"><path class="cls-3" d="M1625.33,3693.38c-4.42.7-8.49-1-9.1-3.87s2.49-5.7,6.9-6.4,8.49,1,9.09,3.87S1629.74,3692.68,1625.33,3693.38Z" transform="translate(0 4)"/><path class="cls-3" d="M1706.45,3611.91c-6.84,3.44-14.57,3-17.26-1s.67-10,7.51-13.47,14.57-3,17.27,1S1713.29,3608.46,1706.45,3611.91Z" transform="translate(0 4)"/><path class="cls-3" d="M1777.13,3665.91c-8.88,1.4-17-1.87-18.2-7.32s5.09-11,14-12.4,17,1.86,18.19,7.31S1786,3664.5,1777.13,3665.91Z" transform="translate(0 4)"/><path class="cls-3" d="M1817.52,3769.14c-8.88,1.41-17-1.86-18.19-7.31s5.1-11,14-12.4,17,1.86,18.19,7.31S1826.41,3767.74,1817.52,3769.14Z" transform="translate(0 4)"/><path class="cls-3" d="M1775.53,3825.9c-11.78,1.86-23-4.2-25-13.56s5.93-18.46,17.71-20.32,23,4.2,25,13.57S1787.32,3824,1775.53,3825.9Z" transform="translate(0 4)"/><path class="cls-3" d="M1722.09,3505.78c-6.75,1.08-13.07-2-14.1-6.82s3.59-9.63,10.35-10.7,13.06,2,14.1,6.83S1728.84,3504.71,1722.09,3505.78Z" transform="translate(0 4)"/><path class="cls-3" d="M1703.57,3567.85c-5.89.93-11.39-1.68-12.29-5.84s3.17-8.29,9.06-9.23,11.4,1.68,12.29,5.86S1709.46,3566.92,1703.57,3567.85Z" transform="translate(0 4)"/><path class="cls-3" d="M1643.28,3458.76c-4.42.71-8.48-1-9.09-3.87s2.47-5.7,6.89-6.39,8.48,1,9.09,3.87S1647.69,3458.07,1643.28,3458.76Z" transform="translate(0 4)"/><path class="cls-3" d="M1738.77,3717.55c-4.41.7-8.48-1-9.09-3.87s2.48-5.7,6.89-6.4,8.49,1,9.09,3.87S1743.18,3716.85,1738.77,3717.55Z" transform="translate(0 4)"/><path class="cls-3" d="M1789.34,3621.54c-4.41.7-8.48-1-9.09-3.87s2.48-5.7,6.89-6.4,8.49,1,9.1,3.88S1793.75,3620.85,1789.34,3621.54Z" transform="translate(0 4)"/><path class="cls-3" d="M1757.07,3719c-4.42.71-8.49-1-9.09-3.87s2.48-5.7,6.89-6.4,8.49,1,9.09,3.86S1761.48,3718.25,1757.07,3719Z" transform="translate(0 4)"/><path class="cls-3" d="M1765.18,3719.7c-4.41.7-8.48-1-9.09-3.87s2.48-5.71,6.89-6.41,8.49,1,9.1,3.88S1769.59,3719,1765.18,3719.7Z" transform="translate(0 4)"/><path class="cls-3" d="M1679.74,3737.29a9,9,0,0,1-10.3-6.67,7.94,7.94,0,0,1,6.86-9.39,9,9,0,0,1,10.3,6.67C1687.55,3732.32,1684.48,3736.53,1679.74,3737.29Z" transform="translate(0 4)"/><path class="cls-3" d="M1818.44,3740c-6.19,1-11.82-1.06-12.57-4.56s3.67-7.13,9.85-8.12,11.82,1.06,12.57,4.57S1824.62,3739.05,1818.44,3740Z" transform="translate(0 4)"/><path class="cls-3" d="M1686.19,3640.9c-6,1-11.57-1.28-12.36-5s3.46-7.47,9.49-8.43,11.59,1.27,12.37,5S1692.24,3639.94,1686.19,3640.9Z" transform="translate(0 4)"/><path class="cls-3" d="M1893.15,3831.84c-6,.95-11.58-1.27-12.37-5s3.47-7.48,9.5-8.43,11.58,1.26,12.36,5S1899.19,3830.88,1893.15,3831.84Z" transform="translate(0 4)"/><path class="cls-3" d="M1655.69,3527c-6,1-11.57-1.27-12.36-5s3.45-7.48,9.49-8.43,11.57,1.26,12.36,5S1661.73,3526,1655.69,3527Z" transform="translate(0 4)"/><path class="cls-3" d="M1722.09,3579.94c-6,.95-11.57-1.27-12.37-5s3.47-7.48,9.5-8.43,11.57,1.26,12.37,5S1728.13,3579,1722.09,3579.94Z" transform="translate(0 4)"/><path class="cls-3" d="M1736.88,3805.29c-6,.95-11.58-1.27-12.37-5s3.46-7.48,9.5-8.43,11.57,1.26,12.37,5S1742.92,3804.33,1736.88,3805.29Z" transform="translate(0 4)"/><path class="cls-3" d="M1796.84,3848.78c-6,.95-11.58-1.26-12.37-5s3.47-7.49,9.5-8.45,11.58,1.27,12.37,5S1802.88,3847.82,1796.84,3848.78Z" transform="translate(0 4)"/></g><g class="cls-2"><path class="cls-3" d="M1535.34,3369c-3.94,2.11-8.36,1.81-9.86-.67s.47-6.2,4.41-8.31,8.36-1.81,9.85.67S1539.28,3366.91,1535.34,3369Z" transform="translate(0 4)"/><path class="cls-3" d="M1585.21,3265.43c-5.33,5.49-12.78,7.61-16.63,4.72s-2.65-9.69,2.67-15.2,12.78-7.62,16.64-4.72S1590.55,3259.92,1585.21,3265.43Z" transform="translate(0 4)"/><path class="cls-3" d="M1669.7,3293.23c-7.93,4.24-16.7,3.83-19.59-.94s1.2-12.06,9.13-16.3,16.69-3.83,19.58.94S1677.63,3289,1669.7,3293.23Z" transform="translate(0 4)"/><path class="cls-3" d="M1741.75,3377.48c-7.93,4.24-16.69,3.83-19.58-.94s1.2-12.05,9.13-16.3,16.69-3.83,19.58.94S1749.68,3373.24,1741.75,3377.48Z" transform="translate(0 4)"/><path class="cls-3" d="M1720.72,3444.87c-10.51,5.63-23.08,3.58-28-4.61s-.45-19.38,10.06-25,23.08-3.56,28,4.62S1731.24,3439.23,1720.72,3444.87Z" transform="translate(0 4)"/><path class="cls-3" d="M1565.14,3160.05c-6,3.23-13,2.42-15.56-1.81s.23-10.28,6.27-13.51,13-2.42,15.56,1.82S1571.17,3156.83,1565.14,3160.05Z" transform="translate(0 4)"/><path class="cls-3" d="M1568,3224.76c-5.26,2.82-11.31,2.16-13.52-1.48s.26-8.88,5.52-11.69,11.32-2.16,13.53,1.49S1573.29,3222,1568,3224.76Z" transform="translate(0 4)"/><path class="cls-3" d="M1475.26,3141.51c-3.94,2.12-8.35,1.81-9.86-.67s.47-6.2,4.41-8.3,8.35-1.82,9.86.67S1479.2,3139.41,1475.26,3141.51Z" transform="translate(0 4)"/><path class="cls-3" d="M1650.43,3354.6c-3.94,2.11-8.36,1.81-9.86-.67s.47-6.2,4.4-8.31,8.36-1.81,9.87.67S1654.36,3352.5,1650.43,3354.6Z" transform="translate(0 4)"/><path class="cls-3" d="M1666.67,3247.32c-3.93,2.1-8.34,1.81-9.85-.68s.47-6.2,4.4-8.31,8.36-1.81,9.87.68S1670.61,3245.21,1666.67,3247.32Z" transform="translate(0 4)"/><path class="cls-3" d="M1668.17,3349.92c-3.94,2.12-8.36,1.81-9.86-.67s.47-6.2,4.41-8.31,8.36-1.81,9.86.66S1672.11,3347.81,1668.17,3349.92Z" transform="translate(0 4)"/><path class="cls-3" d="M1676.08,3348c-3.94,2.1-8.35,1.8-9.86-.68s.47-6.21,4.41-8.31,8.35-1.82,9.86.67S1680,3345.85,1676.08,3348Z" transform="translate(0 4)"/><path class="cls-3" d="M1601.15,3392.63a9,9,0,0,1-11.91-2.92,7.92,7.92,0,0,1,3.39-11.12,9,9,0,0,1,11.92,2.92C1606.9,3385.37,1605.37,3390.36,1601.15,3392.63Z" transform="translate(0 4)"/><path class="cls-3" d="M1733.06,3349.68c-5.53,3-11.51,2.88-13.37-.18s1.12-7.94,6.64-10.91,11.51-2.87,13.37.2S1738.58,3346.72,1733.06,3349.68Z" transform="translate(0 4)"/><path class="cls-3" d="M1575.6,3299.46c-5.39,2.89-11.36,2.6-13.32-.64s.82-8.19,6.2-11.08,11.36-2.61,13.32.64S1581,3296.58,1575.6,3299.46Z" transform="translate(0 4)"/><path class="cls-3" d="M1833.77,3411.87c-5.39,2.88-11.35,2.61-13.31-.63s.81-8.2,6.2-11.08,11.35-2.61,13.31.63S1839.16,3409,1833.77,3411.87Z" transform="translate(0 4)"/><path class="cls-3" d="M1509.37,3201.86c-5.38,2.89-11.34,2.6-13.3-.63s.81-8.2,6.2-11.08,11.35-2.61,13.31.63S1514.77,3199,1509.37,3201.86Z" transform="translate(0 4)"/><path class="cls-3" d="M1589.49,3230.1c-5.39,2.88-11.35,2.6-13.31-.64s.82-8.2,6.2-11.08,11.34-2.6,13.32.64S1594.88,3227.21,1589.49,3230.1Z" transform="translate(0 4)"/><path class="cls-3" d="M1677.44,3438.1c-5.38,2.88-11.35,2.6-13.31-.64s.81-8.2,6.2-11.08,11.35-2.61,13.32.63S1682.83,3435.21,1677.44,3438.1Z" transform="translate(0 4)"/><path class="cls-3" d="M1748.36,3459.49c-5.38,2.89-11.35,2.61-13.31-.62s.81-8.22,6.2-11.1,11.35-2.6,13.32.64S1753.75,3456.6,1748.36,3459.49Z" transform="translate(0 4)"/></g><g class="cls-2"><path class="cls-3" d="M112,1050.75c-4,2.11-8.36,1.81-9.87-.67s.48-6.2,4.41-8.31,8.36-1.81,9.86.68S116,1048.65,112,1050.75Z" transform="translate(0 4)"/><path class="cls-3" d="M161.91,947.16c-5.33,5.5-12.79,7.61-16.64,4.72s-2.65-9.69,2.68-15.2,12.77-7.61,16.63-4.72S167.24,941.65,161.91,947.16Z" transform="translate(0 4)"/><path class="cls-3" d="M246.4,975c-7.93,4.23-16.71,3.82-19.59-.94s1.2-12.06,9.13-16.3,16.69-3.83,19.58.93S254.32,970.72,246.4,975Z" transform="translate(0 4)"/><path class="cls-3" d="M318.45,1059.21c-7.93,4.25-16.7,3.83-19.59-.93s1.2-12.06,9.13-16.31,16.7-3.82,19.58.94S326.37,1055,318.45,1059.21Z" transform="translate(0 4)"/><path class="cls-3" d="M297.42,1126.61c-10.52,5.63-23.08,3.57-28-4.61s-.45-19.38,10.07-25,23.07-3.57,28,4.62S307.93,1121,297.42,1126.61Z" transform="translate(0 4)"/><path class="cls-3" d="M141.83,841.78c-6,3.24-13,2.42-15.56-1.81s.24-10.28,6.27-13.51,13-2.41,15.56,1.83S147.86,838.56,141.83,841.78Z" transform="translate(0 4)"/><path class="cls-3" d="M144.72,906.49c-5.26,2.82-11.31,2.16-13.52-1.48s.27-8.87,5.53-11.69,11.31-2.16,13.53,1.5S150,903.68,144.72,906.49Z" transform="translate(0 4)"/><path class="cls-3" d="M52,823.25c-3.94,2.11-8.34,1.81-9.85-.68s.46-6.2,4.41-8.29,8.35-1.83,9.85.66S55.9,821.14,52,823.25Z" transform="translate(0 4)"/><path class="cls-3" d="M227.12,1036.33c-3.94,2.11-8.35,1.81-9.86-.67s.47-6.2,4.41-8.3,8.36-1.82,9.86.67S231.06,1034.23,227.12,1036.33Z" transform="translate(0 4)"/><path class="cls-3" d="M243.37,929.05c-3.94,2.11-8.35,1.81-9.86-.67s.47-6.2,4.41-8.32,8.35-1.8,9.86.68S247.3,926.94,243.37,929.05Z" transform="translate(0 4)"/><path class="cls-3" d="M244.86,1031.65c-3.93,2.12-8.35,1.81-9.85-.67s.47-6.2,4.4-8.31,8.36-1.81,9.86.66S248.8,1029.54,244.86,1031.65Z" transform="translate(0 4)"/><path class="cls-3" d="M252.78,1029.7c-3.95,2.1-8.36,1.81-9.86-.67s.46-6.21,4.4-8.32,8.36-1.81,9.87.68S256.71,1027.58,252.78,1029.7Z" transform="translate(0 4)"/><path class="cls-3" d="M177.84,1074.36a9,9,0,0,1-11.91-2.92c-2.35-3.88-.83-8.85,3.4-11.12a9,9,0,0,1,11.91,2.92C183.59,1067.11,182.07,1072.09,177.84,1074.36Z" transform="translate(0 4)"/><path class="cls-3" d="M309.75,1031.41c-5.52,3-11.51,2.88-13.37-.18s1.13-7.94,6.64-10.9,11.52-2.88,13.38.19S315.27,1028.45,309.75,1031.41Z" transform="translate(0 4)"/><path class="cls-3" d="M152.29,981.19c-5.39,2.89-11.35,2.6-13.31-.63s.81-8.2,6.2-11.09,11.35-2.6,13.31.64S157.69,978.31,152.29,981.19Z" transform="translate(0 4)"/><path class="cls-3" d="M410.47,1093.61c-5.39,2.88-11.36,2.6-13.32-.64s.82-8.2,6.21-11.08,11.34-2.61,13.31.63S415.85,1090.72,410.47,1093.61Z" transform="translate(0 4)"/><path class="cls-3" d="M86.07,883.6c-5.38,2.88-11.34,2.6-13.31-.63s.81-8.21,6.2-11.09,11.35-2.6,13.31.63S91.46,880.71,86.07,883.6Z" transform="translate(0 4)"/><path class="cls-3" d="M166.19,911.84c-5.4,2.87-11.36,2.59-13.32-.64s.82-8.2,6.2-11.09,11.35-2.6,13.32.64S171.58,908.94,166.19,911.84Z" transform="translate(0 4)"/><path class="cls-3" d="M254.14,1119.83c-5.39,2.89-11.35,2.6-13.32-.63s.82-8.2,6.21-11.08,11.34-2.61,13.31.63S259.53,1116.94,254.14,1119.83Z" transform="translate(0 4)"/><path class="cls-3" d="M325.06,1141.23c-5.39,2.88-11.35,2.6-13.31-.63s.81-8.21,6.19-11.1,11.36-2.59,13.32.64S330.45,1138.34,325.06,1141.23Z" transform="translate(0 4)"/></g><g class="cls-2"><path class="cls-3" d="M116,1321.33c-4-2.11-8.36-1.81-9.87.67s.48,6.2,4.41,8.31,8.36,1.81,9.86-.67S120,1323.44,116,1321.33Z" transform="translate(0 4)"/><path class="cls-3" d="M165.91,1424.92c-5.33-5.5-12.79-7.61-16.64-4.72s-2.65,9.69,2.68,15.2,12.77,7.61,16.63,4.72S171.24,1430.43,165.91,1424.92Z" transform="translate(0 4)"/><path class="cls-3" d="M250.4,1397.12c-7.93-4.24-16.71-3.83-19.59.93s1.2,12.06,9.13,16.31,16.69,3.83,19.58-.94S258.32,1401.37,250.4,1397.12Z" transform="translate(0 4)"/><path class="cls-3" d="M322.45,1312.87c-7.93-4.24-16.7-3.83-19.59.93s1.2,12.06,9.13,16.31,16.7,3.82,19.58-.94S330.37,1317.11,322.45,1312.87Z" transform="translate(0 4)"/><path class="cls-3" d="M301.42,1245.48c-10.52-5.64-23.08-3.58-28,4.61s-.45,19.37,10.07,25,23.07,3.57,28-4.61S311.93,1251.12,301.42,1245.48Z" transform="translate(0 4)"/><path class="cls-3" d="M145.83,1530.3c-6-3.23-13-2.42-15.56,1.81s.24,10.28,6.27,13.51,13,2.42,15.56-1.83S151.86,1533.52,145.83,1530.3Z" transform="translate(0 4)"/><path class="cls-3" d="M148.72,1465.59c-5.26-2.82-11.31-2.16-13.52,1.48s.27,8.88,5.53,11.69,11.31,2.16,13.53-1.49S154,1468.4,148.72,1465.59Z" transform="translate(0 4)"/><path class="cls-3" d="M56,1548.84c-3.94-2.12-8.34-1.81-9.85.67s.46,6.2,4.41,8.3,8.35,1.82,9.85-.67S59.9,1550.94,56,1548.84Z" transform="translate(0 4)"/><path class="cls-3" d="M231.12,1335.75c-3.94-2.11-8.35-1.81-9.86.67s.47,6.2,4.41,8.31,8.36,1.81,9.86-.68S235.06,1337.85,231.12,1335.75Z" transform="translate(0 4)"/><path class="cls-3" d="M247.37,1443c-3.94-2.1-8.35-1.81-9.86.67s.47,6.21,4.41,8.32,8.35,1.81,9.86-.68S251.3,1445.14,247.37,1443Z" transform="translate(0 4)"/><path class="cls-3" d="M248.86,1340.43c-3.93-2.12-8.35-1.81-9.85.67s.47,6.2,4.4,8.31,8.36,1.81,9.86-.66S252.8,1342.54,248.86,1340.43Z" transform="translate(0 4)"/><path class="cls-3" d="M256.78,1342.38c-3.95-2.1-8.36-1.8-9.86.67s.46,6.21,4.4,8.32,8.36,1.81,9.87-.67S260.71,1344.5,256.78,1342.38Z" transform="translate(0 4)"/><path class="cls-3" d="M181.84,1297.72a9,9,0,0,0-11.91,2.92,7.93,7.93,0,0,0,3.4,11.12,9,9,0,0,0,11.91-2.92C187.59,1305,186.07,1300,181.84,1297.72Z" transform="translate(0 4)"/><path class="cls-3" d="M313.75,1340.67c-5.52-3-11.51-2.88-13.37.18s1.13,7.94,6.64,10.9,11.52,2.88,13.38-.19S319.27,1343.63,313.75,1340.67Z" transform="translate(0 4)"/><path class="cls-3" d="M156.29,1390.89c-5.39-2.89-11.35-2.6-13.31.63s.81,8.2,6.2,11.09,11.35,2.6,13.31-.64S161.69,1393.77,156.29,1390.89Z" transform="translate(0 4)"/><path class="cls-3" d="M414.47,1278.48c-5.39-2.88-11.36-2.61-13.32.63s.82,8.2,6.21,11.08,11.34,2.61,13.31-.63S419.85,1281.37,414.47,1278.48Z" transform="translate(0 4)"/><path class="cls-3" d="M90.07,1488.48c-5.38-2.88-11.34-2.59-13.31.64s.81,8.2,6.2,11.08,11.35,2.6,13.31-.63S95.46,1491.37,90.07,1488.48Z" transform="translate(0 4)"/><path class="cls-3" d="M170.19,1460.25c-5.4-2.88-11.36-2.6-13.32.63s.82,8.2,6.2,11.09,11.35,2.6,13.32-.64S175.58,1463.14,170.19,1460.25Z" transform="translate(0 4)"/><path class="cls-3" d="M258.14,1252.25c-5.39-2.89-11.35-2.6-13.32.64s.82,8.19,6.21,11.07,11.34,2.61,13.31-.62S263.53,1255.14,258.14,1252.25Z" transform="translate(0 4)"/><path class="cls-3" d="M329.06,1230.86c-5.39-2.89-11.35-2.61-13.31.62s.81,8.21,6.19,11.1,11.36,2.6,13.32-.64S334.45,1233.75,329.06,1230.86Z" transform="translate(0 4)"/></g><g class="cls-2"><path class="cls-3" d="M247,1852.75c-3.95,2.11-8.36,1.81-9.87-.67s.48-6.2,4.41-8.31,8.36-1.81,9.86.68S251,1850.65,247,1852.75Z" transform="translate(0 4)"/><path class="cls-3" d="M296.91,1749.16c-5.33,5.5-12.79,7.61-16.64,4.72s-2.65-9.69,2.68-15.2,12.77-7.61,16.63-4.72S302.24,1743.65,296.91,1749.16Z" transform="translate(0 4)"/><path class="cls-3" d="M381.4,1777c-7.93,4.23-16.71,3.82-19.59-.94s1.2-12.06,9.13-16.3,16.69-3.83,19.58.93S389.32,1772.72,381.4,1777Z" transform="translate(0 4)"/><path class="cls-3" d="M453.45,1861.21c-7.93,4.25-16.7,3.83-19.59-.93s1.2-12.06,9.13-16.31,16.7-3.82,19.58.94S461.37,1857,453.45,1861.21Z" transform="translate(0 4)"/><path class="cls-3" d="M432.42,1928.61c-10.52,5.63-23.08,3.57-28-4.61s-.45-19.38,10.07-25,23.07-3.57,28,4.62S442.93,1923,432.42,1928.61Z" transform="translate(0 4)"/><path class="cls-3" d="M276.83,1643.78c-6,3.24-13,2.42-15.56-1.81s.24-10.28,6.27-13.51,13-2.41,15.56,1.83S282.86,1640.56,276.83,1643.78Z" transform="translate(0 4)"/><path class="cls-3" d="M279.72,1708.49c-5.26,2.82-11.31,2.16-13.52-1.48s.27-8.87,5.53-11.69,11.31-2.16,13.53,1.5S285,1705.68,279.72,1708.49Z" transform="translate(0 4)"/><path class="cls-3" d="M187,1625.25c-3.94,2.11-8.34,1.81-9.85-.68s.46-6.2,4.41-8.29,8.35-1.83,9.85.66S190.9,1623.14,187,1625.25Z" transform="translate(0 4)"/><path class="cls-3" d="M362.12,1838.33c-3.94,2.11-8.35,1.81-9.86-.67s.47-6.2,4.41-8.3,8.36-1.82,9.86.67S366.06,1836.23,362.12,1838.33Z" transform="translate(0 4)"/><path class="cls-3" d="M378.37,1731.05c-3.94,2.11-8.35,1.81-9.86-.67s.47-6.2,4.41-8.32,8.35-1.8,9.86.68S382.3,1728.94,378.37,1731.05Z" transform="translate(0 4)"/><path class="cls-3" d="M379.86,1833.65c-3.93,2.12-8.35,1.81-9.85-.67s.47-6.2,4.4-8.31,8.36-1.81,9.86.66S383.8,1831.54,379.86,1833.65Z" transform="translate(0 4)"/><path class="cls-3" d="M387.78,1831.7c-3.95,2.1-8.36,1.81-9.86-.67s.46-6.21,4.4-8.32,8.36-1.81,9.87.68S391.71,1829.58,387.78,1831.7Z" transform="translate(0 4)"/><path class="cls-3" d="M312.84,1876.36a9,9,0,0,1-11.91-2.92c-2.35-3.88-.83-8.85,3.4-11.12a9,9,0,0,1,11.91,2.92C318.59,1869.11,317.07,1874.09,312.84,1876.36Z" transform="translate(0 4)"/><path class="cls-3" d="M444.75,1833.41c-5.52,3-11.51,2.88-13.37-.18s1.13-7.94,6.64-10.9,11.52-2.88,13.38.19S450.27,1830.45,444.75,1833.41Z" transform="translate(0 4)"/><path class="cls-3" d="M287.29,1783.19c-5.39,2.89-11.35,2.6-13.31-.63s.81-8.2,6.2-11.09,11.35-2.6,13.31.64S292.69,1780.31,287.29,1783.19Z" transform="translate(0 4)"/><path class="cls-3" d="M545.47,1895.61c-5.39,2.88-11.36,2.6-13.32-.64s.82-8.2,6.21-11.08,11.34-2.61,13.31.63S550.85,1892.72,545.47,1895.61Z" transform="translate(0 4)"/><path class="cls-3" d="M221.07,1685.6c-5.38,2.88-11.34,2.6-13.31-.63s.81-8.21,6.2-11.09,11.35-2.6,13.31.63S226.46,1682.71,221.07,1685.6Z" transform="translate(0 4)"/><path class="cls-3" d="M301.19,1713.84c-5.4,2.87-11.36,2.59-13.32-.64s.82-8.2,6.2-11.09,11.35-2.6,13.32.64S306.58,1710.94,301.19,1713.84Z" transform="translate(0 4)"/><path class="cls-3" d="M389.14,1921.83c-5.39,2.89-11.35,2.6-13.32-.63s.82-8.2,6.21-11.08,11.34-2.61,13.31.63S394.53,1918.94,389.14,1921.83Z" transform="translate(0 4)"/><path class="cls-3" d="M460.06,1943.23c-5.39,2.88-11.35,2.6-13.31-.63s.81-8.21,6.19-11.1,11.36-2.59,13.32.64S465.45,1940.34,460.06,1943.23Z" transform="translate(0 4)"/></g><g class="cls-2"><path class="cls-3" d="M825,1812.62c-1-4.37-4.08-7.52-7-7s-4.39,4.4-3.42,8.76,4.08,7.52,6.94,7S826,1817,825,1812.62Z" transform="translate(0 4)"/><path class="cls-3" d="M779,1918c.69-7.62-2.57-14.65-7.27-15.69s-9.08,4.31-9.78,11.94,2.56,14.65,7.27,15.69S778.29,1925.62,779,1918Z" transform="translate(0 4)"/><path class="cls-3" d="M855.17,1963.9c-2-8.78-8-15.16-13.49-14.24s-8.36,8.77-6.4,17.55,8,15.15,13.48,14.24S857.11,1972.68,855.17,1963.9Z" transform="translate(0 4)"/><path class="cls-3" d="M966,1963.58c-1.95-8.78-8-15.16-13.48-14.24s-8.36,8.77-6.4,17.55,8,15.15,13.48,14.24S968,1972.35,966,1963.58Z" transform="translate(0 4)"/><path class="cls-3" d="M1003.4,1903.68c-2.59-11.65-12.34-19.83-21.78-18.24s-15,12.29-12.4,23.93,12.35,19.82,21.79,18.25S1006,1915.33,1003.4,1903.68Z" transform="translate(0 4)"/><path class="cls-3" d="M686,1971.49c-1.47-6.67-6.63-11.43-11.52-10.61s-7.64,6.88-6.15,13.55,6.64,11.43,11.53,10.61S687.5,1978.16,686,1971.49Z" transform="translate(0 4)"/><path class="cls-3" d="M737,1931.48c-1.29-5.83-5.74-10-9.94-9.29s-6.55,6-5.26,11.82,5.75,10,10,9.28S738.25,1937.3,737,1931.48Z" transform="translate(0 4)"/><path class="cls-3" d="M613.34,1915.44c-1-4.36-4.07-7.5-6.93-7s-4.4,4.4-3.42,8.75,4.07,7.52,6.94,7S614.32,1919.8,613.34,1915.44Z" transform="translate(0 4)"/><path class="cls-3" d="M889.12,1909.26c-1-4.36-4.08-7.51-6.94-7s-4.39,4.4-3.42,8.75,4.07,7.52,6.94,7S890.09,1913.62,889.12,1909.26Z" transform="translate(0 4)"/><path class="cls-3" d="M818.39,1991.55c-1-4.36-4.08-7.51-6.94-7s-4.4,4.4-3.43,8.76,4.08,7.52,6.94,7S819.35,1995.91,818.39,1991.55Z" transform="translate(0 4)"/><path class="cls-3" d="M897.14,1925.77c-1-4.37-4.08-7.51-6.93-7s-4.4,4.4-3.43,8.76,4.08,7.52,6.93,7S898.11,1930.13,897.14,1925.77Z" transform="translate(0 4)"/><path class="cls-3" d="M900.82,1933c-1-4.36-4.08-7.51-6.94-7s-4.4,4.41-3.43,8.76,4.07,7.52,6.94,7S901.78,1937.4,900.82,1933Z" transform="translate(0 4)"/><path class="cls-3" d="M885.81,1847.11a9,9,0,0,0-10-7.13c-4.48.74-7.26,5.15-6.22,9.83a9,9,0,0,0,10,7.13A8,8,0,0,0,885.81,1847.11Z" transform="translate(0 4)"/><path class="cls-3" d="M939.28,1975.11c-1.37-6.11-5.32-10.6-8.86-10s-5.29,6-3.93,12.14,5.32,10.61,8.86,10S940.64,1981.23,939.28,1975.11Z" transform="translate(0 4)"/><path class="cls-3" d="M798.52,1888.5c-1.33-6-5.44-10.3-9.17-9.68s-5.68,6-4.36,11.93,5.43,10.31,9.17,9.67S799.85,1894.47,798.52,1888.5Z" transform="translate(0 4)"/><path class="cls-3" d="M1052.11,2010.9c-1.33-6-5.43-10.3-9.17-9.68s-5.68,6-4.35,11.93,5.42,10.31,9.16,9.68S1053.43,2016.87,1052.11,2010.9Z" transform="translate(0 4)"/><path class="cls-3" d="M681.34,1902c-1.32-6-5.42-10.3-9.15-9.68s-5.7,6-4.36,11.93,5.42,10.3,9.15,9.68S682.67,1907.92,681.34,1902Z" transform="translate(0 4)"/><path class="cls-3" d="M755,1944.27c-1.33-6-5.44-10.3-9.17-9.68s-5.68,6-4.36,11.93,5.43,10.3,9.17,9.68S756.32,1950.24,755,1944.27Z" transform="translate(0 4)"/><path class="cls-3" d="M970,1875.29c-1.33-6-5.44-10.3-9.17-9.68s-5.68,6-4.35,11.93,5.42,10.3,9.16,9.68S971.36,1881.26,970,1875.29Z" transform="translate(0 4)"/><path class="cls-3" d="M1032.5,1915.1c-1.32-6-5.42-10.3-9.15-9.68s-5.7,6-4.37,11.93,5.43,10.3,9.17,9.68S1033.83,1921.07,1032.5,1915.1Z" transform="translate(0 4)"/></g><g class="cls-2"><path class="cls-3" d="M1194,2164.75c-4,2.11-8.36,1.81-9.87-.67s.48-6.2,4.41-8.31,8.36-1.81,9.86.68S1198,2162.65,1194,2164.75Z" transform="translate(0 4)"/><path class="cls-3" d="M1243.91,2061.16c-5.33,5.5-12.79,7.61-16.64,4.72s-2.65-9.69,2.68-15.2,12.77-7.61,16.63-4.72S1249.24,2055.65,1243.91,2061.16Z" transform="translate(0 4)"/><path class="cls-3" d="M1328.4,2089c-7.93,4.23-16.71,3.82-19.59-.94s1.2-12.06,9.13-16.3,16.69-3.83,19.58.93S1336.32,2084.72,1328.4,2089Z" transform="translate(0 4)"/><path class="cls-3" d="M1400.45,2173.21c-7.93,4.25-16.7,3.83-19.59-.93s1.2-12.06,9.13-16.31,16.7-3.82,19.58.94S1408.37,2169,1400.45,2173.21Z" transform="translate(0 4)"/><path class="cls-3" d="M1379.42,2240.61c-10.52,5.63-23.08,3.57-28-4.61s-.45-19.38,10.07-25,23.07-3.57,28,4.62S1389.93,2235,1379.42,2240.61Z" transform="translate(0 4)"/><path class="cls-3" d="M1223.83,1955.78c-6,3.24-13,2.42-15.56-1.81s.24-10.28,6.27-13.51,13-2.41,15.56,1.83S1229.86,1952.56,1223.83,1955.78Z" transform="translate(0 4)"/><path class="cls-3" d="M1226.72,2020.49c-5.26,2.82-11.31,2.16-13.52-1.48s.27-8.87,5.53-11.69,11.31-2.16,13.53,1.5S1232,2017.68,1226.72,2020.49Z" transform="translate(0 4)"/><path class="cls-3" d="M1134,1937.25c-3.94,2.11-8.34,1.81-9.85-.68s.46-6.2,4.41-8.29,8.35-1.83,9.85.66S1137.9,1935.14,1134,1937.25Z" transform="translate(0 4)"/><path class="cls-3" d="M1309.12,2150.33c-3.94,2.11-8.35,1.81-9.86-.67s.47-6.2,4.41-8.3,8.36-1.82,9.86.67S1313.06,2148.23,1309.12,2150.33Z" transform="translate(0 4)"/><path class="cls-3" d="M1325.37,2043.05c-3.94,2.11-8.35,1.81-9.86-.67s.47-6.2,4.41-8.32,8.35-1.8,9.86.68S1329.3,2040.94,1325.37,2043.05Z" transform="translate(0 4)"/><path class="cls-3" d="M1326.86,2145.65c-3.93,2.12-8.35,1.81-9.85-.67s.47-6.2,4.4-8.31,8.36-1.81,9.86.66S1330.8,2143.54,1326.86,2145.65Z" transform="translate(0 4)"/><path class="cls-3" d="M1334.78,2143.7c-4,2.1-8.36,1.81-9.86-.67s.46-6.21,4.4-8.32,8.36-1.81,9.87.68S1338.71,2141.58,1334.78,2143.7Z" transform="translate(0 4)"/><path class="cls-3" d="M1259.84,2188.36a9,9,0,0,1-11.91-2.92c-2.35-3.88-.83-8.85,3.4-11.12a9,9,0,0,1,11.91,2.92C1265.59,2181.11,1264.07,2186.09,1259.84,2188.36Z" transform="translate(0 4)"/><path class="cls-3" d="M1391.75,2145.41c-5.52,3-11.51,2.88-13.37-.18s1.13-7.94,6.64-10.9,11.52-2.88,13.38.19S1397.27,2142.45,1391.75,2145.41Z" transform="translate(0 4)"/><path class="cls-3" d="M1234.29,2095.19c-5.39,2.89-11.35,2.6-13.31-.63s.81-8.2,6.2-11.09,11.35-2.6,13.31.64S1239.69,2092.31,1234.29,2095.19Z" transform="translate(0 4)"/><path class="cls-3" d="M1492.47,2207.61c-5.39,2.88-11.36,2.6-13.32-.64s.82-8.2,6.21-11.08,11.34-2.61,13.31.63S1497.85,2204.72,1492.47,2207.61Z" transform="translate(0 4)"/><path class="cls-3" d="M1168.07,1997.6c-5.38,2.88-11.34,2.6-13.31-.63s.81-8.21,6.2-11.09,11.35-2.6,13.31.63S1173.46,1994.71,1168.07,1997.6Z" transform="translate(0 4)"/><path class="cls-3" d="M1248.19,2025.84c-5.4,2.87-11.36,2.59-13.32-.64s.82-8.2,6.2-11.09,11.35-2.6,13.32.64S1253.58,2022.94,1248.19,2025.84Z" transform="translate(0 4)"/><path class="cls-3" d="M1336.14,2233.83c-5.39,2.89-11.35,2.6-13.32-.63s.82-8.2,6.21-11.08,11.34-2.61,13.31.63S1341.53,2230.94,1336.14,2233.83Z" transform="translate(0 4)"/><path class="cls-3" d="M1407.06,2255.23c-5.39,2.88-11.35,2.6-13.31-.63s.81-8.21,6.19-11.1,11.36-2.59,13.32.64S1412.45,2252.34,1407.06,2255.23Z" transform="translate(0 4)"/></g><g class="cls-2"><path class="cls-3" d="M1401.34,2442.83c-4.46-.29-8-2.88-8-5.78s3.68-5,8.13-4.73,8.06,2.88,8,5.78S1405.8,2443.12,1401.34,2442.83Z" transform="translate(0 4)"/><path class="cls-3" d="M1498.38,2381.17c-7.43,1.85-14.87-.29-16.62-4.77s2.86-9.64,10.29-11.5,14.88.27,16.62,4.77S1505.82,2379.3,1498.38,2381.17Z" transform="translate(0 4)"/><path class="cls-3" d="M1555.47,2449.38c-9-.59-16.21-5.57-16.15-11.14s7.39-9.61,16.36-9,16.2,5.56,16.14,11.14S1564.44,2450,1555.47,2449.38Z" transform="translate(0 4)"/><path class="cls-3" d="M1572.19,2559c-9-.58-16.2-5.56-16.13-11.13s7.38-9.61,16.35-9,16.2,5.57,16.14,11.14S1581.17,2559.54,1572.19,2559Z" transform="translate(0 4)"/><path class="cls-3" d="M1518.76,2605.1c-11.91-.76-21.49-9.14-21.38-18.71s9.85-16.7,21.75-15.93,21.48,9.15,21.38,18.73S1530.67,2605.86,1518.76,2605.1Z" transform="translate(0 4)"/><path class="cls-3" d="M1537,2281.07c-6.82-.43-12.31-4.8-12.26-9.76s5.63-8.6,12.45-8.16,12.31,4.8,12.26,9.76S1543.78,2281.51,1537,2281.07Z" transform="translate(0 4)"/><path class="cls-3" d="M1505.25,2337.55c-6-.38-10.75-4.14-10.7-8.39s4.91-7.4,10.86-7,10.75,4.13,10.7,8.41S1511.2,2337.94,1505.25,2337.55Z" transform="translate(0 4)"/><path class="cls-3" d="M1470.4,2217.88c-4.47-.28-8.05-2.87-8-5.77s3.67-5,8.13-4.72,8,2.86,8,5.77S1474.86,2218.18,1470.4,2217.88Z" transform="translate(0 4)"/><path class="cls-3" d="M1506.7,2491.33c-4.46-.29-8-2.88-8-5.78s3.67-5,8.13-4.73,8,2.87,8,5.78S1511.16,2491.62,1506.7,2491.33Z" transform="translate(0 4)"/><path class="cls-3" d="M1577.13,2408.78c-4.45-.29-8.05-2.87-8-5.77s3.67-5,8.13-4.74,8,2.88,8,5.78S1581.58,2409.07,1577.13,2408.78Z" transform="translate(0 4)"/><path class="cls-3" d="M1524.24,2496.72c-4.46-.28-8-2.88-8-5.78s3.67-5,8.13-4.73,8.05,2.87,8,5.77S1528.7,2497,1524.24,2496.72Z" transform="translate(0 4)"/><path class="cls-3" d="M1532,2499.23c-4.46-.29-8-2.87-8-5.77s3.68-5,8.13-4.74,8.06,2.87,8,5.78S1536.45,2499.51,1532,2499.23Z" transform="translate(0 4)"/><path class="cls-3" d="M1444.78,2497.62a9,9,0,0,1-8.58-8.77,7.92,7.92,0,0,1,8.75-7.65,9,9,0,0,1,8.58,8.76C1453.49,2494.49,1449.56,2497.92,1444.78,2497.62Z" transform="translate(0 4)"/><path class="cls-3" d="M1579.48,2530.76c-6.25-.4-11.29-3.63-11.26-7.21s5.15-6.15,11.4-5.75,11.3,3.63,11.25,7.22S1585.73,2531.16,1579.48,2530.76Z" transform="translate(0 4)"/><path class="cls-3" d="M1472.25,2405c-6.1-.39-11-3.79-11-7.57s5-6.53,11.11-6.14,11,3.78,11,7.57S1478.35,2405.39,1472.25,2405Z" transform="translate(0 4)"/><path class="cls-3" d="M1632.2,2636.75c-6.1-.4-11-3.78-11-7.57s5-6.54,11.12-6.14,11,3.77,11,7.57S1638.3,2637.13,1632.2,2636.75Z" transform="translate(0 4)"/><path class="cls-3" d="M1467.52,2287.15c-6.1-.39-11-3.78-11-7.56s5-6.54,11.12-6.14,11,3.77,11,7.56S1473.62,2287.54,1467.52,2287.15Z" transform="translate(0 4)"/><path class="cls-3" d="M1520.66,2353.42c-6.1-.4-11-3.79-11-7.57s5-6.53,11.12-6.14,11,3.78,11,7.57S1526.77,2353.81,1520.66,2353.42Z" transform="translate(0 4)"/><path class="cls-3" d="M1485.58,2576.5c-6.1-.39-11-3.78-11-7.56s5-6.53,11.12-6.14,11,3.78,11,7.56S1491.68,2576.9,1485.58,2576.5Z" transform="translate(0 4)"/><path class="cls-3" d="M1534.52,2632.11c-6.1-.39-11-3.78-11-7.56s5-6.54,11.13-6.15,11,3.78,11,7.57S1540.62,2632.5,1534.52,2632.11Z" transform="translate(0 4)"/></g><g class="cls-2"><path class="cls-3" d="M1495,2931.75c-4,2.11-8.36,1.81-9.87-.67s.48-6.2,4.41-8.31,8.36-1.81,9.86.68S1499,2929.65,1495,2931.75Z" transform="translate(0 4)"/><path class="cls-3" d="M1544.91,2828.16c-5.33,5.5-12.79,7.61-16.64,4.72s-2.65-9.69,2.68-15.2,12.77-7.61,16.63-4.72S1550.24,2822.65,1544.91,2828.16Z" transform="translate(0 4)"/><path class="cls-3" d="M1629.4,2856c-7.93,4.23-16.71,3.82-19.59-.94s1.2-12.06,9.13-16.3,16.69-3.83,19.58.93S1637.32,2851.72,1629.4,2856Z" transform="translate(0 4)"/><path class="cls-3" d="M1701.45,2940.21c-7.93,4.25-16.7,3.83-19.59-.93s1.2-12.06,9.13-16.31,16.7-3.82,19.58.94S1709.37,2936,1701.45,2940.21Z" transform="translate(0 4)"/><path class="cls-3" d="M1680.42,3007.61c-10.52,5.63-23.08,3.57-28-4.61s-.45-19.38,10.07-25,23.07-3.57,28,4.62S1690.93,3002,1680.42,3007.61Z" transform="translate(0 4)"/><path class="cls-3" d="M1524.83,2722.78c-6,3.24-13,2.42-15.56-1.81s.24-10.28,6.27-13.51,13-2.41,15.56,1.83S1530.86,2719.56,1524.83,2722.78Z" transform="translate(0 4)"/><path class="cls-3" d="M1527.72,2787.49c-5.26,2.82-11.31,2.16-13.52-1.48s.27-8.87,5.53-11.69,11.31-2.16,13.53,1.5S1533,2784.68,1527.72,2787.49Z" transform="translate(0 4)"/><path class="cls-3" d="M1435,2704.25c-3.94,2.11-8.34,1.81-9.85-.68s.46-6.2,4.41-8.29,8.35-1.83,9.85.66S1438.9,2702.14,1435,2704.25Z" transform="translate(0 4)"/><path class="cls-3" d="M1610.12,2917.33c-3.94,2.11-8.35,1.81-9.86-.67s.47-6.2,4.41-8.3,8.36-1.82,9.86.67S1614.06,2915.23,1610.12,2917.33Z" transform="translate(0 4)"/><path class="cls-3" d="M1626.37,2810.05c-3.94,2.11-8.35,1.81-9.86-.67s.47-6.2,4.41-8.32,8.35-1.8,9.86.68S1630.3,2807.94,1626.37,2810.05Z" transform="translate(0 4)"/><path class="cls-3" d="M1627.86,2912.65c-3.93,2.12-8.35,1.81-9.85-.67s.47-6.2,4.4-8.31,8.36-1.81,9.86.66S1631.8,2910.54,1627.86,2912.65Z" transform="translate(0 4)"/><path class="cls-3" d="M1635.78,2910.7c-4,2.1-8.36,1.81-9.86-.67s.46-6.21,4.4-8.32,8.36-1.81,9.87.68S1639.71,2908.58,1635.78,2910.7Z" transform="translate(0 4)"/><path class="cls-3" d="M1560.84,2955.36a9,9,0,0,1-11.91-2.92c-2.35-3.88-.83-8.85,3.4-11.12a9,9,0,0,1,11.91,2.92C1566.59,2948.11,1565.07,2953.09,1560.84,2955.36Z" transform="translate(0 4)"/><path class="cls-3" d="M1692.75,2912.41c-5.52,3-11.51,2.88-13.37-.18s1.13-7.94,6.64-10.9,11.52-2.88,13.38.19S1698.27,2909.45,1692.75,2912.41Z" transform="translate(0 4)"/><path class="cls-3" d="M1535.29,2862.19c-5.39,2.89-11.35,2.6-13.31-.63s.81-8.2,6.2-11.09,11.35-2.6,13.31.64S1540.69,2859.31,1535.29,2862.19Z" transform="translate(0 4)"/><path class="cls-3" d="M1793.47,2974.61c-5.39,2.88-11.36,2.6-13.32-.64s.82-8.2,6.21-11.08,11.34-2.61,13.31.63S1798.85,2971.72,1793.47,2974.61Z" transform="translate(0 4)"/><path class="cls-3" d="M1469.07,2764.6c-5.38,2.88-11.34,2.6-13.31-.63s.81-8.21,6.2-11.09,11.35-2.6,13.31.63S1474.46,2761.71,1469.07,2764.6Z" transform="translate(0 4)"/><path class="cls-3" d="M1549.19,2792.84c-5.4,2.87-11.36,2.59-13.32-.64s.82-8.2,6.2-11.09,11.35-2.6,13.32.64S1554.58,2789.94,1549.19,2792.84Z" transform="translate(0 4)"/><path class="cls-3" d="M1637.14,3000.83c-5.39,2.89-11.35,2.6-13.32-.63s.82-8.2,6.21-11.08,11.34-2.61,13.31.63S1642.53,2997.94,1637.14,3000.83Z" transform="translate(0 4)"/><path class="cls-3" d="M1708.06,3022.23c-5.39,2.88-11.35,2.6-13.31-.63s.81-8.21,6.19-11.1,11.36-2.59,13.32.64S1713.45,3019.34,1708.06,3022.23Z" transform="translate(0 4)"/></g><g class="cls-2"><path class="cls-3" d="M1351.85,1726.12c4,2.11,8.36,1.81,9.87-.67s-.48-6.2-4.42-8.31-8.35-1.81-9.85.68S1347.91,1724,1351.85,1726.12Z" transform="translate(0 4)"/><path class="cls-3" d="M1302,1622.53c5.33,5.5,12.78,7.61,16.63,4.72s2.66-9.69-2.67-15.2-12.78-7.61-16.64-4.72S1296.65,1617,1302,1622.53Z" transform="translate(0 4)"/><path class="cls-3" d="M1217.49,1650.34c7.93,4.23,16.7,3.82,19.59-.94s-1.2-12.06-9.13-16.31-16.69-3.82-19.58.94S1209.57,1646.08,1217.49,1650.34Z" transform="translate(0 4)"/><path class="cls-3" d="M1145.44,1734.58c7.93,4.24,16.69,3.83,19.58-.93s-1.2-12.06-9.13-16.31-16.69-3.82-19.58.94S1137.51,1730.34,1145.44,1734.58Z" transform="translate(0 4)"/><path class="cls-3" d="M1166.47,1802c10.52,5.63,23.08,3.57,28-4.62s.46-19.37-10.06-25-23.07-3.57-28,4.61S1156,1796.33,1166.47,1802Z" transform="translate(0 4)"/><path class="cls-3" d="M1322.05,1517.15c6,3.23,13,2.42,15.56-1.81s-.23-10.28-6.26-13.51-13-2.41-15.56,1.83S1316,1513.93,1322.05,1517.15Z" transform="translate(0 4)"/><path class="cls-3" d="M1319.16,1581.86c5.26,2.82,11.32,2.16,13.53-1.48s-.27-8.87-5.53-11.69-11.32-2.16-13.53,1.49S1313.91,1579.05,1319.16,1581.86Z" transform="translate(0 4)"/><path class="cls-3" d="M1411.93,1498.62c3.94,2.11,8.35,1.8,9.86-.68s-.47-6.2-4.41-8.3-8.35-1.82-9.86.67S1408,1496.51,1411.93,1498.62Z" transform="translate(0 4)"/><path class="cls-3" d="M1236.77,1711.7c3.93,2.11,8.35,1.81,9.85-.67s-.46-6.2-4.4-8.31-8.36-1.81-9.86.68S1232.83,1709.6,1236.77,1711.7Z" transform="translate(0 4)"/><path class="cls-3" d="M1220.52,1604.42c3.93,2.1,8.35,1.81,9.85-.67s-.46-6.21-4.4-8.32-8.36-1.8-9.87.68S1216.58,1602.31,1220.52,1604.42Z" transform="translate(0 4)"/><path class="cls-3" d="M1219,1707c3.94,2.12,8.36,1.81,9.86-.67s-.47-6.2-4.41-8.31-8.36-1.81-9.86.66S1215.08,1704.91,1219,1707Z" transform="translate(0 4)"/><path class="cls-3" d="M1211.11,1705.07c3.94,2.1,8.35,1.8,9.86-.67s-.47-6.21-4.4-8.32-8.36-1.81-9.87.67S1207.18,1703,1211.11,1705.07Z" transform="translate(0 4)"/><path class="cls-3" d="M1286,1749.73a9,9,0,0,0,11.92-2.92c2.35-3.88.83-8.85-3.4-11.12a9,9,0,0,0-11.92,2.92A8,8,0,0,0,1286,1749.73Z" transform="translate(0 4)"/><path class="cls-3" d="M1154.13,1706.78c5.53,3,11.51,2.88,13.37-.18s-1.12-7.94-6.64-10.9-11.51-2.88-13.37.19S1148.61,1703.82,1154.13,1706.78Z" transform="translate(0 4)"/><path class="cls-3" d="M1311.6,1656.56c5.38,2.89,11.35,2.6,13.31-.63s-.82-8.2-6.2-11.09-11.36-2.6-13.31.64S1306.2,1653.68,1311.6,1656.56Z" transform="translate(0 4)"/><path class="cls-3" d="M1053.42,1769c5.39,2.89,11.35,2.61,13.32-.63s-.82-8.2-6.21-11.08-11.35-2.61-13.31.63S1048,1766.09,1053.42,1769Z" transform="translate(0 4)"/><path class="cls-3" d="M1377.82,1559c5.38,2.88,11.34,2.6,13.3-.64s-.8-8.2-6.2-11.08-11.34-2.6-13.3.63S1372.42,1556.08,1377.82,1559Z" transform="translate(0 4)"/><path class="cls-3" d="M1297.7,1587.2c5.39,2.88,11.35,2.6,13.31-.63s-.81-8.2-6.2-11.09-11.34-2.6-13.31.64S1292.31,1584.31,1297.7,1587.2Z" transform="translate(0 4)"/><path class="cls-3" d="M1209.75,1795.2c5.39,2.89,11.35,2.6,13.31-.63s-.81-8.2-6.2-11.08-11.35-2.61-13.31.62S1204.36,1792.31,1209.75,1795.2Z" transform="translate(0 4)"/><path class="cls-3" d="M1138.83,1816.59c5.39,2.89,11.35,2.61,13.31-.62s-.81-8.21-6.2-11.1-11.35-2.6-13.31.64S1133.44,1813.71,1138.83,1816.59Z" transform="translate(0 4)"/></g><g class="cls-2"><path class="cls-3" d="M1538.6,1209.5c-1.25-4.3,0-8.55,2.7-9.52s6,1.76,7.21,6,0,8.55-2.69,9.5S1539.85,1213.78,1538.6,1209.5Z" transform="translate(0 4)"/><path class="cls-3" d="M1629.63,1279.73c-4.28-6.36-4.8-14.09-1.18-17.26s10-.59,14.32,5.77,4.81,14.07,1.17,17.25S1633.91,1286.08,1629.63,1279.73Z" transform="translate(0 4)"/><path class="cls-3" d="M1584.94,1356.63c-2.5-8.63-.28-17.13,5-19s11.56,3.67,14.07,12.31.29,17.12-5,19S1587.46,1365.27,1584.94,1356.63Z" transform="translate(0 4)"/><path class="cls-3" d="M1487.61,1409.69c-2.51-8.63-.29-17.12,5-19s11.55,3.66,14.06,12.3.29,17.12-5,19S1490.12,1418.33,1487.61,1409.69Z" transform="translate(0 4)"/><path class="cls-3" d="M1426,1375.17c-3.34-11.46,1.27-23.32,10.31-26.47s19.05,3.56,22.38,15-1.28,23.31-10.32,26.48S1429.37,1386.63,1426,1375.17Z" transform="translate(0 4)"/><path class="cls-3" d="M1736.88,1281.89c-1.92-6.56.32-13.21,5-14.84s10,2.35,11.92,8.92-.32,13.21-5,14.85S1738.79,1288.46,1736.88,1281.89Z" transform="translate(0 4)"/><path class="cls-3" d="M1673,1271.33c-1.66-5.73.23-11.52,4.25-12.92s8.63,2.09,10.3,7.82-.23,11.52-4.27,12.93S1674.63,1277.05,1673,1271.33Z" transform="translate(0 4)"/><path class="cls-3" d="M1773.62,1197.79c-1.26-4.29,0-8.54,2.69-9.5s6,1.74,7.21,6,0,8.55-2.7,9.51S1774.86,1202.09,1773.62,1197.79Z" transform="translate(0 4)"/><path class="cls-3" d="M1528.89,1325.08c-1.25-4.29,0-8.55,2.7-9.51s6,1.74,7.21,6,0,8.55-2.69,9.51S1530.13,1329.36,1528.89,1325.08Z" transform="translate(0 4)"/><path class="cls-3" d="M1630.49,1363.17c-1.24-4.28,0-8.54,2.7-9.5s6,1.74,7.22,6,0,8.55-2.7,9.51S1631.74,1367.46,1630.49,1363.17Z" transform="translate(0 4)"/><path class="cls-3" d="M1529.8,1343.4c-1.26-4.29,0-8.54,2.7-9.5s6,1.74,7.22,6,0,8.55-2.69,9.51S1531.05,1347.69,1529.8,1343.4Z" transform="translate(0 4)"/><path class="cls-3" d="M1530.07,1351.55c-1.24-4.3,0-8.55,2.7-9.51s6,1.74,7.23,6,0,8.55-2.7,9.51S1531.33,1355.83,1530.07,1351.55Z" transform="translate(0 4)"/><path class="cls-3" d="M1501.88,1269a9.05,9.05,0,0,1,5.32-11.06c4.29-1.5,8.84,1,10.18,5.63a9,9,0,0,1-5.32,11C1507.79,1276.12,1503.23,1273.6,1501.88,1269Z" transform="translate(0 4)"/><path class="cls-3" d="M1516.61,1406.94c-1.75-6-.44-11.86,2.94-13s7.54,2.74,9.29,8.75.44,11.86-2.95,13S1518.36,1413,1516.61,1406.94Z" transform="translate(0 4)"/><path class="cls-3" d="M1598.32,1263.27c-1.71-5.86-.19-11.64,3.38-12.89s7.85,2.5,9.56,8.36.2,11.65-3.38,12.89S1600,1269.15,1598.32,1263.27Z" transform="translate(0 4)"/><path class="cls-3" d="M1434.92,1492.6c-1.7-5.87-.2-11.64,3.38-12.9s7.85,2.5,9.55,8.37.21,11.64-3.37,12.89S1436.63,1498.47,1434.92,1492.6Z" transform="translate(0 4)"/><path class="cls-3" d="M1707.51,1218.68c-1.71-5.86-.19-11.63,3.37-12.88s7.86,2.48,9.57,8.36.19,11.63-3.38,12.88S1709.22,1224.56,1707.51,1218.68Z" transform="translate(0 4)"/><path class="cls-3" d="M1663.31,1291.22c-1.71-5.87-.19-11.64,3.37-12.89s7.86,2.5,9.57,8.36.19,11.64-3.38,12.9S1665,1297.09,1663.31,1291.22Z" transform="translate(0 4)"/><path class="cls-3" d="M1441.61,1334.23c-1.71-5.87-.19-11.64,3.38-12.89s7.85,2.49,9.55,8.36.21,11.64-3.37,12.89S1443.32,1340.1,1441.61,1334.23Z" transform="translate(0 4)"/><path class="cls-3" d="M1406,1399.19c-1.71-5.87-.21-11.65,3.36-12.9s7.87,2.5,9.58,8.36.19,11.65-3.39,12.9S1407.72,1405.06,1406,1399.19Z" transform="translate(0 4)"/></g><g class="cls-2"><path class="cls-3" d="M1660,1056.12c-4,2.11-8.36,1.81-9.87-.67s.48-6.2,4.41-8.31,8.36-1.81,9.86.68S1664,1054,1660,1056.12Z" transform="translate(0 4)"/><path class="cls-3" d="M1709.91,952.53c-5.33,5.5-12.79,7.61-16.64,4.72s-2.65-9.69,2.68-15.2,12.77-7.61,16.63-4.72S1715.24,947,1709.91,952.53Z" transform="translate(0 4)"/><path class="cls-3" d="M1794.4,980.34c-7.93,4.23-16.71,3.82-19.59-.94s1.2-12.06,9.13-16.31,16.69-3.82,19.58.94S1802.32,976.08,1794.4,980.34Z" transform="translate(0 4)"/><path class="cls-3" d="M1866.45,1064.58c-7.93,4.24-16.7,3.83-19.59-.93s1.2-12.06,9.13-16.31,16.7-3.82,19.58.94S1874.37,1060.34,1866.45,1064.58Z" transform="translate(0 4)"/><path class="cls-3" d="M1845.42,1132c-10.52,5.63-23.08,3.57-28-4.62s-.45-19.37,10.07-25,23.07-3.57,28,4.61S1855.93,1126.33,1845.42,1132Z" transform="translate(0 4)"/><path class="cls-3" d="M1689.83,847.15c-6,3.23-13,2.42-15.56-1.81s.24-10.28,6.27-13.51,13-2.41,15.56,1.83S1695.86,843.93,1689.83,847.15Z" transform="translate(0 4)"/><path class="cls-3" d="M1692.72,911.86c-5.26,2.82-11.31,2.16-13.52-1.48s.27-8.87,5.53-11.69,11.31-2.16,13.53,1.49S1698,909.05,1692.72,911.86Z" transform="translate(0 4)"/><path class="cls-3" d="M1600,828.62c-3.94,2.11-8.34,1.8-9.85-.68s.46-6.2,4.41-8.3,8.35-1.82,9.85.67S1603.9,826.51,1600,828.62Z" transform="translate(0 4)"/><path class="cls-3" d="M1775.12,1041.7c-3.94,2.11-8.35,1.81-9.86-.67s.47-6.2,4.41-8.31,8.36-1.81,9.86.68S1779.06,1039.6,1775.12,1041.7Z" transform="translate(0 4)"/><path class="cls-3" d="M1791.37,934.42c-3.94,2.1-8.35,1.81-9.86-.67s.47-6.21,4.41-8.32,8.35-1.8,9.86.68S1795.3,932.31,1791.37,934.42Z" transform="translate(0 4)"/><path class="cls-3" d="M1792.86,1037c-3.93,2.12-8.35,1.81-9.85-.67s.47-6.2,4.4-8.31,8.36-1.81,9.86.66S1796.8,1034.91,1792.86,1037Z" transform="translate(0 4)"/><path class="cls-3" d="M1800.78,1035.07c-4,2.1-8.36,1.8-9.86-.67s.46-6.21,4.4-8.32,8.36-1.81,9.87.67S1804.71,1033,1800.78,1035.07Z" transform="translate(0 4)"/><path class="cls-3" d="M1725.84,1079.73a9,9,0,0,1-11.91-2.92c-2.35-3.88-.83-8.85,3.4-11.12a9,9,0,0,1,11.91,2.92C1731.59,1072.48,1730.07,1077.46,1725.84,1079.73Z" transform="translate(0 4)"/><path class="cls-3" d="M1857.75,1036.78c-5.52,3-11.51,2.88-13.37-.18s1.13-7.94,6.64-10.9,11.52-2.88,13.38.19S1863.27,1033.82,1857.75,1036.78Z" transform="translate(0 4)"/><path class="cls-3" d="M1700.29,986.56c-5.39,2.89-11.35,2.6-13.31-.63s.81-8.2,6.2-11.09,11.35-2.6,13.31.64S1705.69,983.68,1700.29,986.56Z" transform="translate(0 4)"/><path class="cls-3" d="M1958.47,1099c-5.39,2.89-11.36,2.61-13.32-.63s.82-8.2,6.21-11.08,11.34-2.61,13.31.63S1963.85,1096.09,1958.47,1099Z" transform="translate(0 4)"/><path class="cls-3" d="M1634.07,889c-5.38,2.88-11.34,2.6-13.31-.64s.81-8.2,6.2-11.08,11.35-2.6,13.31.63S1639.46,886.08,1634.07,889Z" transform="translate(0 4)"/><path class="cls-3" d="M1714.19,917.2c-5.4,2.88-11.36,2.6-13.32-.63s.82-8.2,6.2-11.09,11.35-2.6,13.32.64S1719.58,914.31,1714.19,917.2Z" transform="translate(0 4)"/><path class="cls-3" d="M1802.14,1125.2c-5.39,2.89-11.35,2.6-13.32-.63s.82-8.2,6.21-11.08,11.34-2.61,13.31.62S1807.53,1122.31,1802.14,1125.2Z" transform="translate(0 4)"/><path class="cls-3" d="M1873.06,1146.59c-5.39,2.89-11.35,2.61-13.31-.62s.81-8.21,6.19-11.1,11.36-2.6,13.32.64S1878.45,1143.71,1873.06,1146.59Z" transform="translate(0 4)"/></g><g class="cls-2"><path class="cls-3" d="M557.23,2341c2.38,3.79,2.4,8.21,0,9.89s-6.22,0-8.6-3.82-2.39-8.21,0-9.87S554.85,2337.27,557.23,2341Z" transform="translate(0 4)"/><path class="cls-3" d="M450.39,2298.58c5.86,4.93,8.49,12.22,5.88,16.26s-9.48,3.33-15.35-1.6S432.43,2301,435,2297,444.52,2293.65,450.39,2298.58Z" transform="translate(0 4)"/><path class="cls-3" d="M472.18,2212.35c4.79,7.61,5,16.39.45,19.6s-12.12-.34-16.91-8-5-16.38-.44-19.6S467.39,2204.74,472.18,2212.35Z" transform="translate(0 4)"/><path class="cls-3" d="M551.15,2134.55c4.79,7.61,5,16.38.45,19.6s-12.12-.35-16.91-8-5-16.38-.44-19.6S546.36,2126.94,551.15,2134.55Z" transform="translate(0 4)"/><path class="cls-3" d="M619.86,2150.78c6.36,10.1,5.19,22.78-2.63,28.3s-19.3,1.81-25.65-8.29-5.19-22.76,2.63-28.29S613.49,2140.69,619.86,2150.78Z" transform="translate(0 4)"/><path class="cls-3" d="M346.69,2326c3.64,5.78,3.32,12.79-.72,15.65s-10.27.49-13.91-5.3-3.33-12.79.72-15.65S343,2320.23,346.69,2326Z" transform="translate(0 4)"/><path class="cls-3" d="M411,2318.58c3.18,5.05,3,11.14-.53,13.6s-8.87.36-12.05-4.69-2.94-11.14.54-13.6S407.86,2313.54,411,2318.58Z" transform="translate(0 4)"/><path class="cls-3" d="M334.52,2417c2.38,3.78,2.39,8.2,0,9.88s-6.22,0-8.59-3.82-2.4-8.2,0-9.88S332.14,2413.19,334.52,2417Z" transform="translate(0 4)"/><path class="cls-3" d="M534.75,2227.26c2.39,3.78,2.4,8.2,0,9.88s-6.22,0-8.6-3.81-2.39-8.21,0-9.89S532.38,2223.48,534.75,2227.26Z" transform="translate(0 4)"/><path class="cls-3" d="M426.59,2218.6c2.38,3.77,2.4,8.2,0,9.88s-6.22,0-8.61-3.81-2.39-8.21,0-9.89S424.21,2214.82,426.59,2218.6Z" transform="translate(0 4)"/><path class="cls-3" d="M528.84,2209.89c2.39,3.78,2.39,8.2,0,9.88s-6.22,0-8.6-3.81-2.39-8.21,0-9.89S526.46,2206.11,528.84,2209.89Z" transform="translate(0 4)"/><path class="cls-3" d="M526.33,2202.13c2.38,3.79,2.39,8.21,0,9.89s-6.23,0-8.61-3.81-2.4-8.21,0-9.89S523.94,2198.36,526.33,2202.13Z" transform="translate(0 4)"/><path class="cls-3" d="M576.15,2273.74a9,9,0,0,1-2.07,12.09,7.92,7.92,0,0,1-11.33-2.61,9,9,0,0,1,2.07-12.09A7.94,7.94,0,0,1,576.15,2273.74Z" transform="translate(0 4)"/><path class="cls-3" d="M524,2145.18c3.34,5.3,3.69,11.28.76,13.34s-8-.56-11.34-5.85-3.68-11.28-.75-13.35S520.69,2139.88,524,2145.18Z" transform="translate(0 4)"/><path class="cls-3" d="M485,2305.78c3.26,5.17,3.39,11.14.3,13.33s-8.24-.24-11.5-5.41-3.39-11.15-.29-13.32S481.76,2300.6,485,2305.78Z" transform="translate(0 4)"/><path class="cls-3" d="M579,2040.34c3.25,5.17,3.39,11.14.3,13.33s-8.24-.24-11.49-5.42-3.4-11.13-.3-13.32S575.73,2035.17,579,2040.34Z" transform="translate(0 4)"/><path class="cls-3" d="M392.32,2378.7c3.25,5.17,3.39,11.14.3,13.32s-8.23-.23-11.49-5.41-3.39-11.13-.31-13.31S389.06,2373.52,392.32,2378.7Z" transform="translate(0 4)"/><path class="cls-3" d="M414.85,2296.8c3.25,5.17,3.39,11.14.3,13.32s-8.24-.23-11.49-5.4-3.4-11.14-.3-13.33S411.59,2291.63,414.85,2296.8Z" transform="translate(0 4)"/><path class="cls-3" d="M616.14,2194.43c3.26,5.17,3.4,11.14.31,13.33s-8.24-.24-11.49-5.41-3.4-11.13-.31-13.32S612.89,2189.26,616.14,2194.43Z" transform="translate(0 4)"/><path class="cls-3" d="M632.5,2122.19c3.25,5.17,3.4,11.13.31,13.32s-8.25-.23-11.51-5.41-3.39-11.14-.29-13.32S629.24,2117,632.5,2122.19Z" transform="translate(0 4)"/></g><g class="cls-2"><path class="cls-3" d="M305.74,2741.55c.86,4.39-.71,8.53-3.52,9.25s-5.8-2.27-6.66-6.65.71-8.52,3.52-9.23S304.87,2737.18,305.74,2741.55Z" transform="translate(0 4)"/><path class="cls-3" d="M221.2,2663.63c3.71,6.7,3.55,14.45-.33,17.29s-10.05-.29-13.76-7-3.56-14.45.34-17.29S217.49,2656.92,221.2,2663.63Z" transform="translate(0 4)"/><path class="cls-3" d="M272.45,2590.93c1.74,8.82-1.22,17.09-6.61,18.46s-11.19-4.66-12.93-13.49,1.2-17.08,6.6-18.45S270.69,2582.11,272.45,2590.93Z" transform="translate(0 4)"/><path class="cls-3" d="M374.05,2546.59c1.75,8.82-1.21,17.09-6.61,18.46s-11.18-4.67-12.93-13.49,1.21-17.08,6.61-18.45S372.3,2537.77,374.05,2546.59Z" transform="translate(0 4)"/><path class="cls-3" d="M432.38,2586.37c2.31,11.7-3.32,23.12-12.59,25.47s-18.67-5.22-21-16.92,3.32-23.11,12.6-25.48S430.05,2574.66,432.38,2586.37Z" transform="translate(0 4)"/><path class="cls-3" d="M114.55,2652.09c1.34,6.7-1.47,13.13-6.27,14.35s-9.76-3.22-11.09-9.93,1.48-13.13,6.28-14.36S113.23,2645.38,114.55,2652.09Z" transform="translate(0 4)"/><path class="cls-3" d="M177.29,2668.2c1.16,5.85-1.24,11.45-5.36,12.5s-8.41-2.84-9.57-8.7,1.24-11.45,5.37-12.5S176.14,2662.35,177.29,2668.2Z" transform="translate(0 4)"/><path class="cls-3" d="M70.6,2732.65c.87,4.38-.71,8.51-3.52,9.23s-5.79-2.26-6.65-6.64.69-8.52,3.52-9.23S69.74,2728.26,70.6,2732.65Z" transform="translate(0 4)"/><path class="cls-3" d="M325.52,2627.27c.87,4.38-.71,8.52-3.52,9.23s-5.79-2.25-6.66-6.63.71-8.53,3.52-9.24S324.66,2622.89,325.52,2627.27Z" transform="translate(0 4)"/><path class="cls-3" d="M227.65,2580.43c.86,4.38-.71,8.51-3.52,9.23s-5.8-2.26-6.67-6.64.71-8.52,3.53-9.24S226.78,2576.05,227.65,2580.43Z" transform="translate(0 4)"/><path class="cls-3" d="M326.22,2608.93c.88,4.39-.71,8.52-3.52,9.23s-5.79-2.25-6.66-6.63.71-8.53,3.51-9.24S325.35,2604.55,326.22,2608.93Z" transform="translate(0 4)"/><path class="cls-3" d="M326.66,2600.79c.86,4.39-.71,8.52-3.52,9.24s-5.8-2.26-6.67-6.64.71-8.52,3.53-9.24S325.78,2596.42,326.66,2600.79Z" transform="translate(0 4)"/><path class="cls-3" d="M347.52,2685.5a9,9,0,0,1-6.27,10.54,7.92,7.92,0,0,1-9.64-6.49,9,9,0,0,1,6.26-10.55C342.26,2677.88,346.58,2680.79,347.52,2685.5Z" transform="translate(0 4)"/><path class="cls-3" d="M344.92,2546.8c1.22,6.15-.6,11.85-4.07,12.73s-7.27-3.39-8.49-9.53.6-11.85,4.08-12.74S343.7,2540.65,344.92,2546.8Z" transform="translate(0 4)"/><path class="cls-3" d="M251,2682.76c1.19,6-.83,11.61-4.49,12.55s-7.61-3.18-8.8-9.17.82-11.62,4.5-12.55S249.77,2676.76,251,2682.76Z" transform="translate(0 4)"/><path class="cls-3" d="M433.79,2468.61c1.19,6-.82,11.62-4.49,12.55s-7.6-3.17-8.79-9.17.82-11.61,4.49-12.54S432.6,2462.62,433.79,2468.61Z" transform="translate(0 4)"/><path class="cls-3" d="M138.28,2717.62c1.19,6-.82,11.61-4.49,12.55S126.18,2727,125,2721s.82-11.61,4.48-12.54S137.09,2711.62,138.28,2717.62Z" transform="translate(0 4)"/><path class="cls-3" d="M188.66,2649.23c1.18,6-.83,11.61-4.49,12.55s-7.61-3.18-8.8-9.17.83-11.61,4.5-12.55S187.47,2643.23,188.66,2649.23Z" transform="translate(0 4)"/><path class="cls-3" d="M413.27,2625.79c1.19,6-.83,11.62-4.49,12.55s-7.61-3.17-8.79-9.17.82-11.61,4.49-12.55S412.08,2619.79,413.27,2625.79Z" transform="translate(0 4)"/><path class="cls-3" d="M454.42,2564.2c1.19,6-.81,11.61-4.48,12.54s-7.62-3.17-8.8-9.16S442,2556,445.63,2555,453.23,2558.2,454.42,2564.2Z" transform="translate(0 4)"/></g></svg>