<?xml version="1.0" encoding="UTF-8"?>
<svg width="50px" height="50px" viewBox="0 0 50 50" version="1.1" xmlns="http://www.w3.org/2000/svg" xmlns:xlink="http://www.w3.org/1999/xlink">
    <!-- Generator: Sketch 63.1 (92452) - https://sketch.com -->
    <title>icono-whatsapp-original</title>
    <desc>Created with Sketch.</desc>
    <defs>
        <path d="M10.1372308,0.0652991453 C9.91945299,0.0652991453 9.44519658,0.0719316239 9.07842735,0.084991453 L9.07842735,0.084991453 C8.18789744,0.116649573 7.04006838,0.18625641 6.51835897,0.291623932 L6.51835897,0.291623932 C5.72205128,0.452444444 4.96991453,0.69634188 4.34447863,1.01504274 L4.34447863,1.01504274 C3.60957265,1.38953846 2.95111111,1.8674188 2.38235897,2.43507692 L2.38235897,2.43507692 C1.81237607,3.00403419 1.33264957,3.66324786 0.956649573,4.39917949 L0.956649573,4.39917949 C0.638837607,5.02126496 0.395076923,5.76875214 0.23357265,6.56061538 L0.23357265,6.56061538 C0.126153846,7.08758974 0.0551111111,8.24403419 0.022974359,9.14030769 L0.022974359,9.14030769 C0.00977777778,9.50666667 0.00314529915,9.98078632 0.00314529915,10.199453 L0.00314529915,10.199453 L0,29.8627692 C0,30.080547 0.00656410256,30.5548034 0.0196239316,30.9215043 L0.0196239316,30.9215043 C0.0513504274,31.8121026 0.120957265,32.9599316 0.226324786,33.481641 L0.226324786,33.481641 C0.387076923,34.2779487 0.630974359,35.0300855 0.94974359,35.655453 L0.94974359,35.655453 C1.32417094,36.390359 1.80205128,37.0488889 2.36977778,37.617641 L2.36977778,37.617641 C2.93873504,38.1875556 3.59788034,38.6672821 4.33388034,39.0433504 L4.33388034,39.0433504 C4.95596581,39.3611624 5.70338462,39.6049231 6.49517949,39.766359 L6.49517949,39.766359 C7.02222222,39.8738462 8.17873504,39.9448889 9.07494017,39.9770256 L9.07494017,39.9770256 C9.44129915,39.9902222 9.9154188,39.9968547 10.1340855,39.9968547 L10.1340855,39.9968547 L29.7974017,40 C30.0151795,40 30.4895043,39.9934359 30.8562051,39.9803761 L30.8562051,39.9803761 C31.746735,39.9487179 32.8946325,39.8790427 33.4163419,39.7736752 L33.4163419,39.7736752 C34.2126496,39.6128547 34.9647863,39.3689573 35.5901538,39.0503248 L35.5901538,39.0503248 C36.3250598,38.6757607 36.9835897,38.1978803 37.5522735,37.6302222 L37.5522735,37.6302222 C38.122188,37.061265 38.6019829,36.4020513 38.9779829,35.6661197 L38.9779829,35.6661197 C39.2957949,35.0439658 39.5395556,34.2966154 39.7010598,33.5047521 L39.7010598,33.5047521 C39.808547,32.9777778 39.8795214,31.821265 39.9116581,30.9250598 L39.9116581,30.9250598 C39.9247863,30.5587009 39.9314872,30.0845812 39.9314872,29.8658462 L39.9314872,29.8658462 L39.9346325,10.5807179 L39.9346325,10.1640342 C39.9339487,9.93251282 39.9273162,9.49011966 39.9150085,9.14379487 L39.9150085,9.14379487 C39.8833504,8.25319658 39.8137436,7.10536752 39.7083077,6.58365812 L39.7083077,6.58365812 C39.5474872,5.78735043 39.3036581,5.03521368 38.9849573,4.40984615 L38.9849573,4.40984615 C38.6104615,3.67494017 38.1325812,3.01641026 37.5649231,2.4477265 L37.5649231,2.4477265 C36.9959658,1.87781197 36.3367521,1.39801709 35.6008205,1.02201709 L35.6008205,1.02201709 C34.978735,0.704136752 34.2311795,0.460376068 33.439453,0.298871795 L33.439453,0.298871795 C32.9123419,0.191521368 31.7559658,0.120478632 30.8596923,0.0883418803 L30.8596923,0.0883418803 C30.493265,0.0751452991 30.0192137,0.0685128205 29.800547,0.0685128205 L29.800547,0.0685128205 L10.1372308,0.0652991453 Z" id="path-1"></path>
    </defs>
    <g id="Page-1" stroke="none" stroke-width="1" fill="none" fill-rule="evenodd">
        <g id="1D--Escalera-Planes---Módulo-Home---Template---Cerrado" transform="translate(-695.000000, -829.000000)">
            <g id="Group-4" transform="translate(0.000000, 768.000000)">
                <g id="Group-17" transform="translate(165.000000, 61.000000)">
                    <g id="Group" transform="translate(380.000000, 0.000000)">
                        <g id="icono-whatsapp-original" transform="translate(150.000000, 0.000000)">
                            <g id="Group-6" transform="translate(5.000000, 5.000000)">
                                <g id="Group-3" transform="translate(0.000000, 0.003077)">
                                    <mask id="mask-2" fill="white">
                                        <use xlink:href="#path-1"></use>
                                    </mask>
                                    <g id="Clip-2"></g>
                                    <path d="M10.1372308,0.0652991453 C9.91945299,0.0652991453 9.44519658,0.0719316239 9.07842735,0.084991453 L9.07842735,0.084991453 C8.18789744,0.116649573 7.04006838,0.18625641 6.51835897,0.291623932 L6.51835897,0.291623932 C5.72205128,0.452444444 4.96991453,0.69634188 4.34447863,1.01504274 L4.34447863,1.01504274 C3.60957265,1.38953846 2.95111111,1.8674188 2.38235897,2.43507692 L2.38235897,2.43507692 C1.81237607,3.00403419 1.33264957,3.66324786 0.956649573,4.39917949 L0.956649573,4.39917949 C0.638837607,5.02126496 0.395076923,5.76875214 0.23357265,6.56061538 L0.23357265,6.56061538 C0.126153846,7.08758974 0.0551111111,8.24403419 0.022974359,9.14030769 L0.022974359,9.14030769 C0.00977777778,9.50666667 0.00314529915,9.98078632 0.00314529915,10.199453 L0.00314529915,10.199453 L0,29.8627692 C0,30.080547 0.00656410256,30.5548034 0.0196239316,30.9215043 L0.0196239316,30.9215043 C0.0513504274,31.8121026 0.120957265,32.9599316 0.226324786,33.481641 L0.226324786,33.481641 C0.387076923,34.2779487 0.630974359,35.0300855 0.94974359,35.655453 L0.94974359,35.655453 C1.32417094,36.390359 1.80205128,37.0488889 2.36977778,37.617641 L2.36977778,37.617641 C2.93873504,38.1875556 3.59788034,38.6672821 4.33388034,39.0433504 L4.33388034,39.0433504 C4.95596581,39.3611624 5.70338462,39.6049231 6.49517949,39.766359 L6.49517949,39.766359 C7.02222222,39.8738462 8.17873504,39.9448889 9.07494017,39.9770256 L9.07494017,39.9770256 C9.44129915,39.9902222 9.9154188,39.9968547 10.1340855,39.9968547 L10.1340855,39.9968547 L29.7974017,40 C30.0151795,40 30.4895043,39.9934359 30.8562051,39.9803761 L30.8562051,39.9803761 C31.746735,39.9487179 32.8946325,39.8790427 33.4163419,39.7736752 L33.4163419,39.7736752 C34.2126496,39.6128547 34.9647863,39.3689573 35.5901538,39.0503248 L35.5901538,39.0503248 C36.3250598,38.6757607 36.9835897,38.1978803 37.5522735,37.6302222 L37.5522735,37.6302222 C38.122188,37.061265 38.6019829,36.4020513 38.9779829,35.6661197 L38.9779829,35.6661197 C39.2957949,35.0439658 39.5395556,34.2966154 39.7010598,33.5047521 L39.7010598,33.5047521 C39.808547,32.9777778 39.8795214,31.821265 39.9116581,30.9250598 L39.9116581,30.9250598 C39.9247863,30.5587009 39.9314872,30.0845812 39.9314872,29.8658462 L39.9314872,29.8658462 L39.9346325,10.5807179 L39.9346325,10.1640342 C39.9339487,9.93251282 39.9273162,9.49011966 39.9150085,9.14379487 L39.9150085,9.14379487 C39.8833504,8.25319658 39.8137436,7.10536752 39.7083077,6.58365812 L39.7083077,6.58365812 C39.5474872,5.78735043 39.3036581,5.03521368 38.9849573,4.40984615 L38.9849573,4.40984615 C38.6104615,3.67494017 38.1325812,3.01641026 37.5649231,2.4477265 L37.5649231,2.4477265 C36.9959658,1.87781197 36.3367521,1.39801709 35.6008205,1.02201709 L35.6008205,1.02201709 C34.978735,0.704136752 34.2311795,0.460376068 33.439453,0.298871795 L33.439453,0.298871795 C32.9123419,0.191521368 31.7559658,0.120478632 30.8596923,0.0883418803 L30.8596923,0.0883418803 C30.493265,0.0751452991 30.0192137,0.0685128205 29.800547,0.0685128205 L29.800547,0.0685128205 L10.1372308,0.0652991453 Z" id="Fill-1" fill="#25D366" mask="url(#mask-2)"></path>
                                </g>
                                <path d="M26.8899487,22.6641436 C26.5342564,22.4861607 24.7855385,21.6259214 24.459453,21.5072889 C24.1334359,21.3886564 23.8963761,21.3293744 23.6591795,21.6853402 C23.4221197,22.0412376 22.7404103,22.8421949 22.5329573,23.0793915 C22.3255043,23.3167932 22.1180513,23.3464684 21.762359,23.1684171 C21.4066667,22.9904342 20.2606154,22.6149812 18.9020513,21.4035624 C17.8446838,20.4607932 17.1307692,19.2963487 16.9233162,18.9403829 C16.7158632,18.5843487 16.9012308,18.3919385 17.0793504,18.2146393 C17.2392821,18.0553915 17.4349744,17.7993915 17.6128205,17.5917333 C17.7906667,17.3840752 17.8499487,17.2357675 17.9684444,16.9985026 C18.0870085,16.7611692 18.0277949,16.5535111 17.9388376,16.3755282 C17.8499487,16.1975453 17.1386325,14.4473915 16.8421538,13.7354598 C16.5534701,13.0421265 16.2602735,13.1359385 16.0419487,13.1250667 C15.8347009,13.1147419 15.5972991,13.1125538 15.3601709,13.1125538 C15.1231111,13.1125538 14.7377436,13.2015111 14.4117265,13.5574769 C14.0857094,13.9134427 13.1668718,14.7737504 13.1668718,16.5238359 C13.1668718,18.2739897 14.4413333,19.9647932 14.6192479,20.2021265 C14.797094,20.4394598 17.1272821,24.0309128 20.6952821,25.5712205 C21.5438974,25.9375111 22.2065299,26.1562462 22.7230427,26.320212 C23.5751453,26.5907761 24.3504615,26.5525538 24.9633162,26.4610667 C25.6466667,26.3589812 27.0677949,25.6008274 27.3642051,24.7702632 C27.660547,23.9396991 27.660547,23.2277675 27.5716581,23.0793915 C27.4827009,22.9311521 27.2455726,22.8421949 26.8899487,22.6641436 M20.4000342,31.5226051 L20.3952479,31.5226051 C18.2721709,31.5217162 16.1898462,30.9515966 14.3732991,29.873853 L13.9412308,29.6175111 L9.46321368,30.7918701 L10.6584957,26.4272205 L10.3771282,25.9797675 C9.19278632,24.0964855 8.56721368,21.9199385 8.56816984,19.685135 C8.57076923,13.1636308 13.8784615,7.85798974 20.4047521,7.85798974 C23.5649573,7.85922051 26.5356239,9.09115214 28.7694701,11.3267761 C31.0033162,13.5624684 32.2328547,16.5342291 32.2316249,19.6946393 C32.2289573,26.2165538 26.9213333,31.5226051 20.4000342,31.5226051 M30.469641,9.62797265 C27.7820513,6.9381265 24.2078974,5.45607521 20.3998974,5.45457094 C12.5537436,5.45457094 6.16782906,11.8379556 6.16475214,19.6841778 C6.16365812,22.1922803 6.81917949,24.6404855 8.0648547,26.7985026 L6.04536752,34.1727248 L13.5916239,32.1939214 C15.6708034,33.3275966 18.0117265,33.9249983 20.3942222,33.9260239 L20.4000342,33.9260239 L20.4001026,33.9260239 C28.2454359,33.9260239 34.6318974,27.5418188 34.6350439,19.6955282 C34.636547,15.893135 33.1572308,12.3177504 30.469641,9.62797265" id="Fill-4" fill="#FFFFFF"></path>
                            </g>
                        </g>
                    </g>
                </g>
            </g>
        </g>
    </g>
</svg>